<?xml version="1.0" encoding="UTF-8" standalone="no"?>
<svg
   version="1.1"
   id="Layer_1"
   x="0px"
   y="0px"
   width="100%"
   viewBox="0 0 854 642"
   enable-background="new 0 0 854 642"
   xml:space="preserve"
   sodipodi:docname="file.svg"
   inkscape:version="1.3.2 (091e20e, 2023-11-25, custom)"
   xmlns:inkscape="http://www.inkscape.org/namespaces/inkscape"
   xmlns:sodipodi="http://sodipodi.sourceforge.net/DTD/sodipodi-0.dtd"
   xmlns:xlink="http://www.w3.org/1999/xlink"
   xmlns="http://www.w3.org/2000/svg"
   xmlns:svg="http://www.w3.org/2000/svg"><defs
   id="defs94"><linearGradient
     id="linearGradient94"
     inkscape:collect="always"><stop
       style="stop-color:#007782;stop-opacity:1;"
       offset="0"
       id="stop94" /><stop
       style="stop-color:#32365c;stop-opacity:1;"
       offset="1"
       id="stop95" /></linearGradient><linearGradient
     inkscape:collect="always"
     xlink:href="#linearGradient94"
     id="linearGradient95"
     x1="303.08759"
     y1="281.79691"
     x2="563.38045"
     y2="281.79691"
     gradientUnits="userSpaceOnUse" /></defs><sodipodi:namedview
   id="namedview94"
   pagecolor="#ffffff"
   bordercolor="#000000"
   borderopacity="0.25"
   inkscape:showpageshadow="2"
   inkscape:pageopacity="0.0"
   inkscape:pagecheckerboard="0"
   inkscape:deskcolor="#d1d1d1"
   inkscape:zoom="0.70710678"
   inkscape:cx="537.40115"
   inkscape:cy="338.70415"
   inkscape:window-width="1920"
   inkscape:window-height="991"
   inkscape:window-x="-9"
   inkscape:window-y="-9"
   inkscape:window-maximized="1"
   inkscape:current-layer="Layer_1" />
<path
   fill="#FFFFFF"
   opacity="1.000000"
   stroke="none"
   d=" M473.000000,643.000000   C315.333344,643.000000 158.166672,643.000000 1.000000,643.000000   C1.000000,429.000000 1.000000,215.000000 1.000000,1.000000   C285.666656,1.000000 570.333313,1.000000 855.000000,1.000000   C855.000000,215.000000 855.000000,429.000000 855.000000,643.000000   C727.833313,643.000000 600.666687,643.000000 473.000000,643.000000  M559.623108,389.665863   C560.222046,388.225891 560.820984,386.785950 561.864502,384.755920   C562.595337,380.864960 563.851318,376.988190 563.957092,373.080292   C564.256714,362.015625 564.095825,350.938141 564.097839,339.865723   C564.106445,291.644348 564.121643,243.422974 564.077332,195.201645   C564.074890,192.599075 563.552673,189.996994 563.456970,186.941299   C563.463989,186.604980 563.378662,186.293976 563.308105,185.243851   C563.001343,184.284515 562.694580,183.325165 562.451721,182.154190   C562.451721,182.154190 562.334229,181.966965 562.335327,181.260788   C561.954407,180.433182 561.573547,179.605560 561.124817,178.054199   C554.298279,161.705154 539.267456,151.735794 521.665100,151.845444   C511.513824,151.908691 501.362305,151.960159 491.210907,151.956268   C443.235779,151.937866 395.260681,151.906067 347.285553,151.863678   C321.139038,151.840576 303.210022,169.561661 303.187347,195.696838   C303.137299,253.415817 303.318634,311.135437 303.087494,368.853516   C303.020142,385.672729 314.237701,407.117828 337.447418,411.376404   C337.931366,411.356659 338.415344,411.336914 339.558868,411.588226   C340.030548,411.623871 340.502228,411.659546 341.875183,411.986237   C348.254791,411.905914 354.634369,411.825592 361.905914,411.844482   C364.594940,411.801941 367.283936,411.759430 370.885132,411.966339   C422.796600,411.948212 474.710693,412.170532 526.616272,411.607788   C533.107544,411.537384 539.553711,407.317535 546.654236,404.832916   C548.581421,403.055511 550.508606,401.278137 552.956665,399.152618   C553.676453,398.139343 554.396240,397.126038 555.652222,395.767975   C556.446899,394.538910 557.241577,393.309875 558.520508,391.736816   C558.715637,391.190002 558.910767,390.643188 559.623108,389.665863  M366.004822,498.017914   C366.004822,498.017914 365.937225,498.035950 365.993530,498.854767   C366.679016,502.076447 367.167358,505.359955 368.148376,508.488983   C368.533508,509.717499 369.930756,511.368103 371.024017,511.497192   C374.365753,511.891693 377.783722,511.640472 381.381195,511.640472   C380.522095,508.766388 379.804596,506.366089 379.077423,503.170135   C375.029449,490.119690 370.981476,477.069244 366.962891,463.232941   C366.137726,461.019836 365.312561,458.806763 364.282837,456.045044   C360.390503,456.045044 356.084351,455.916229 351.796967,456.142822   C350.820801,456.194366 349.326996,457.302704 349.056183,458.216461   C345.237030,471.103973 341.588196,484.041962 337.472839,497.353027   C337.391418,497.908569 337.309967,498.464142 336.886292,499.691956   C336.190582,502.105774 335.494843,504.519592 334.297607,507.422699   C333.957794,508.736725 333.617950,510.050720 333.252441,511.463989   C345.490662,512.376709 345.490662,512.376709 347.034088,504.300812   C347.671204,502.138885 348.308350,499.976929 349.885590,497.745209   C355.243286,497.853638 360.600952,497.962067 366.004822,498.017914  M646.693909,462.654755   C647.714966,460.663025 648.736084,458.671295 649.834473,456.528625   C637.236938,454.966644 637.240479,454.968048 632.942627,465.908020   C632.216980,467.755127 631.593323,469.665680 630.642456,471.392639   C630.021118,472.520996 628.894348,473.371063 627.933838,473.573303   C625.690674,468.578064 623.512268,463.551880 621.152039,458.612640   C620.653503,457.569458 619.539795,456.158875 618.623596,456.091858   C614.768066,455.809662 610.879944,455.972534 606.261536,455.972534   C609.959351,462.971283 612.649048,469.267120 616.405884,474.843994   C620.410889,480.789368 620.012146,485.723145 616.248962,491.569519   C612.267151,497.755585 609.248901,504.561798 605.415649,511.846161   C608.661987,511.846161 610.837891,511.569794 612.915894,511.903320   C617.333252,512.612366 619.498657,510.716522 620.910278,506.633942   C622.659607,501.574829 625.043823,496.735229 627.557922,490.855865   C630.595581,497.400574 633.052063,503.002808 635.821289,508.445892   C636.530212,509.839172 638.124695,511.518219 639.491272,511.696808   C643.012634,512.156860 646.634094,511.850769 651.290344,511.850769   C647.166016,504.580109 643.598145,498.290405 639.928711,491.262329   C638.662964,487.919556 634.863525,485.318878 637.177490,480.771423   C637.177490,480.771423 637.129456,480.431793 637.675232,479.926056   C638.688354,477.904236 639.701477,475.882446 641.075073,473.395447   C642.769409,469.949921 644.463806,466.504425 646.693909,462.654755  M208.115768,496.927338   C208.115768,501.642059 208.115768,506.356781 208.115768,511.449310   C212.578293,511.449310 216.785492,511.449310 221.721802,511.707214   C222.483765,511.638428 223.245743,511.569641 224.861511,511.709503   C226.903442,511.699677 228.945358,511.689850 231.754639,511.800110   C233.516327,511.355652 235.478027,511.262390 236.999329,510.395935   C240.503448,508.400146 244.673523,506.702515 246.993225,503.673706   C252.353058,496.675232 249.658890,488.483398 240.836502,482.579132   C245.617813,477.151337 249.286438,471.401825 245.154694,463.206390   C242.394104,461.229645 239.810776,457.917480 236.840164,457.523224   C227.431259,456.274445 217.877670,456.116028 208.294876,455.530792   C208.294876,463.779541 208.294876,470.884827 208.100723,478.654388   C208.167465,479.106110 208.234222,479.557861 208.124374,480.893677   C208.186356,483.592072 208.248337,486.290466 208.112625,489.850128   C208.176743,491.903992 208.240860,493.957855 208.115768,496.927338  M497.313690,457.955688   C496.620575,457.937134 495.927490,457.918579 494.889465,457.178833   C487.417419,456.625000 479.945404,456.071136 472.395935,455.511566   C472.395935,474.938141 472.395935,493.230804 472.395935,512.119141   C479.559540,511.775269 486.303558,511.451477 493.851776,511.195190   C500.925720,510.527008 506.686951,507.291046 510.186035,501.207275   C516.583252,490.084717 517.028870,478.401855 510.784790,467.136017   C509.063446,464.030243 505.047607,462.196198 501.874298,459.246246   C500.581665,458.856445 499.289062,458.466644 497.313690,457.955688  M273.928741,459.917816   C273.928741,477.035614 273.928741,494.153412 273.928741,511.480896   C278.108856,511.480896 281.831360,511.480896 286.012817,511.480896   C286.012817,504.918701 286.012817,498.666504 286.012817,492.514496   C293.112305,491.198578 293.106140,491.201721 295.959686,496.817535   C297.542450,499.932404 299.182587,503.018433 300.739227,506.146179   C303.871796,512.440430 309.082001,514.068359 316.285583,510.696991   C312.642181,503.917267 309.003937,497.147064 305.147919,489.971649   C313.901642,484.210754 316.514984,476.172791 313.374817,466.493408   C311.211243,459.824188 305.813690,457.158142 298.416565,456.184998   C291.267700,456.137177 284.118378,456.123657 276.970306,456.020630   C274.827301,455.989746 273.224365,456.229370 273.928741,459.917816  M403.169159,458.030792   C403.169159,475.775116 403.169159,493.519409 403.169159,512.239990   C411.262665,511.816681 418.901337,511.929779 426.375824,510.877106   C433.375519,509.891296 439.306793,506.184357 442.489624,499.541870   C447.170624,489.772827 447.721802,479.567902 443.360840,469.606262   C438.128998,457.655212 417.133636,451.346039 403.169159,458.030792  M587.150574,483.521240   C587.076904,481.859894 587.105042,480.186707 586.913452,478.539093   C585.465637,466.088135 577.068787,457.131531 565.869080,456.032532   C553.056335,454.775238 542.779358,460.574982 539.670532,472.493347   C538.011292,478.854706 537.791321,486.160309 539.076721,492.610229   C542.408997,509.330414 559.906189,516.836731 574.766479,508.522430   C584.096191,503.302460 586.768677,494.418549 587.150574,483.521240  z"
   id="path1" />
<path
   id="path2"
   style="fill:url(#linearGradient95)"
   d="m 521.66602,151.8457 c -10.15123,0.0633 -20.30373,0.11522 -30.45508,0.11133 -47.97488,-0.0184 -95.9509,-0.0514 -143.92578,-0.0937 -26.14641,-0.0231 -44.07499,17.69891 -44.09766,43.83399 -0.05,57.71868 0.13153,115.43842 -0.0996,173.15625 -0.0674,16.81911 11.14967,38.26508 33.98047,42.16796 0.48074,3e-5 0.96204,-5.1e-4 1.9668,0.28321 0.99569,0.3193 1.46777,0.35498 1.93945,0.39062 6.46016,-0.14874 12.9204,-0.29745 20.15625,-0.14843 3.46472,0.25517 6.15277,0.21246 8.8418,0.16992 1.03875,-0.14291 2.07646,-0.32611 3.11523,-0.47852 -0.97807,0.16435 -1.89816,0.39013 -2.6582,0.60352 52.3675,0.10659 104.28197,0.32837 156.1875,-0.23438 6.49126,-0.0704 12.9372,-4.29068 19.40429,-6.58789 0,0 -0.10803,-0.10791 -0.1621,-0.16211 -9.5332,4.46417 -19.49715,5.42383 -29.94922,5.3086 10.45203,0.11523 20.41515,-0.84358 30.00195,-5.67774 2.09637,-2.04455 4.08447,-3.77464 6.11719,-5.83398 0.97509,-1.14795 1.90704,-1.96482 2.89258,-3.12891 1.04713,-1.4816 2.03967,-2.61725 3.07421,-4.01758 0.34443,-0.69168 0.64692,-1.11645 0.97071,-1.89648 0.6856,-1.77713 1.34906,-3.2018 2.03125,-5.04492 -0.0179,0.41986 0.20031,0.60272 0.5332,0.39648 1.06372,-4.09719 2.32001,-7.97493 2.42578,-11.88281 0.29962,-11.06465 0.13861,-22.14245 0.14063,-33.21485 0.009,-48.22127 0.0248,-96.44283 -0.0195,-144.66406 -0.002,-2.40694 -0.4487,-4.77263 -0.8125,-6.77539 0.002,-0.25387 0.002,-0.49404 0.004,-0.74805 0.19409,-1.07359 0.10919,-1.38423 -0.0684,-1.66992 -0.34387,-0.94633 -0.68786,-1.89183 -0.89062,-3.3457 0.14117,-0.50755 0.0234,-0.69531 0.0234,-0.69531 -0.42944,-0.8141 -0.85803,-1.62841 -1.24804,-3.17774 -6.78704,-17.08418 -21.81767,-27.05301 -39.41992,-26.94336 z M 380.9668,201.30469 c 13.46502,0.0629 26.56292,0.26986 39.65625,0.63672 8.07279,0.22621 16.28421,-0.13034 24.17383,1.2539 11.81417,2.0728 21.32846,8.5713 28.53906,18.73438 0.72885,0.6009 1.20086,0.99652 1.68359,1.72656 0.0345,0.64899 0.14285,0.92796 0.5332,1.29297 0.0767,0.0655 0.15185,0.12617 0.22852,0.1914 5.96474,11.34079 8.68079,23.28217 6.36719,36.0625 -0.59018,3.26022 -4.12526,6.70244 -2.51758,10.02735 l -0.69925,1.67193 c -0.20834,0.62513 -0.41843,1.25132 -1.17187,2.25977 -4.24805,8.70278 -11.41852,14.76697 -18.45508,20.10742 1.17087,0.99102 2.59067,1.91888 4.35938,2.76562 6.01464,-6.07305 11.91623,-12.13538 17.08202,-18.27538 1.5549,-1.84815 2.47385,-2.32148 4.24414,-1.21094 6.23871,10.46336 12.3859,20.72319 11.68555,33.05859 -0.38779,6.83059 -2.41023,13.56922 -3.73437,20.70899 -0.20859,1.01126 -0.37778,1.66156 -0.86133,2.46289 -0.31433,0.15014 -0.19306,0.14538 -0.2168,0.0898 -0.75729,1.63788 -1.49075,3.33146 -2.58789,5.05859 -0.36362,0.0339 -0.2919,0.0614 -0.30664,0.0254 -0.22818,0.55701 -0.44046,1.14905 -0.95703,1.86719 -0.6312,0.1912 -0.84821,0.38361 -0.98047,0.92578 -0.25677,0.79373 -0.48416,1.36424 -1.02148,2.01953 -0.30893,0.0856 -0.176,0.0437 -0.22461,-0.006 -2.7388,2.70787 -5.42878,5.46555 -8.49024,8.21093 -0.3713,-0.012 -0.30732,0.0199 -0.31054,-0.0156 -0.20981,0.24707 -0.41718,0.52841 -0.87891,0.89453 -0.25525,0.0835 -0.16223,0.0441 -0.19336,0.004 -0.7969,0.67012 -1.56247,1.3811 -2.70703,2.05078 -0.37882,-0.0407 -0.27231,-9e-5 -0.26953,-0.0566 -0.47028,0.31848 -0.94352,0.69302 -1.74414,1.0625 -0.32755,-0.006 -0.23267,0.0241 -0.23047,-0.0254 -0.48264,0.31073 -0.96906,0.67074 -1.7793,1.02148 -0.32541,-0.009 -0.22894,-0.0131 -0.25781,-0.0508 -0.0885,1.69179 -0.69403,2.45779 -1.55664,2.81445 0.77231,-0.36745 1.24121,-1.1565 1.16992,-2.80078 -2.28628,1.03824 -4.21555,2.02509 -5.69922,3.04492 -0.76407,-0.0792 -1.08234,-0.12668 -1.61523,-0.0332 -1.67436,0.61032 -3.2813,1.40281 -4.86328,2.02539 1.48769,-0.60387 2.9226,-1.36459 4.24218,-1.89844 -5.49561,0.59213 -10.57904,1.66333 -15.67383,1.72461 -24.30115,0.2923 -48.60659,0.30988 -72.82421,0.62891 1.22426,-3.28958 2.53503,-6.3743 3.94531,-9.78321 0.51236,-1.35567 0.92404,-2.38961 1.70312,-3.45703 0.3671,-0.0345 0.25696,-0.11477 0.30274,-0.0644 0.2247,-0.52554 0.40393,-1.10052 0.87695,-1.79492 0.2941,-0.1185 0.10986,-0.21131 0.18945,-0.14649 0.48316,-0.93382 0.88844,-1.93149 1.65039,-2.97461 0.35846,-0.0444 0.23136,-0.12396 0.28711,-0.0742 0.46091,-0.94739 0.86606,-1.94346 1.62305,-2.99219 0.35184,-0.0516 0.31552,-0.0711 0.33008,-0.0566 -0.0973,-1.85345 1.19858,-3.86787 -0.67578,-5.5 1.88006,1.63004 0.61675,3.6267 0.97656,5.33594 5.75804,-9.03558 11.34849,-17.82252 16.66797,-26.76954 4.87898,-8.20622 9.4664,-16.58503 14.18164,-24.88867 -10e-4,-0.003 -0.003,-0.005 -0.004,-0.008 0.002,5.1e-4 0.004,0 0.004,0 0.17483,-0.29932 0.3497,-0.59986 0.70117,-1.01562 0.17664,-0.11652 0.32031,0.0273 0.32031,0.0273 0.11423,-0.31683 0.22699,-0.63452 0.58008,-1.07617 0.23886,-0.12479 0.23242,-0.13867 0.23242,-0.13867 0.86612,-1.87156 1.73218,-3.74464 2.85352,-5.81055 0.25522,-0.19437 0.43942,0.084 0.43945,0.084 0.0921,-0.33035 0.185,-0.66119 0.49219,-1.12109 0.21512,-0.12955 0.25586,-0.0898 0.25586,-0.0898 0.18796,-0.56342 0.37479,-1.12751 0.7793,-1.84766 0.21658,-0.15671 0.31445,-0.0684 0.31445,-0.0684 0.19055,-0.57721 0.38,-1.15491 0.7207,-1.92774 0.15012,-0.19557 0.48438,0.0449 0.48438,0.0449 0.15436,-0.59241 0.30856,-1.18424 0.58203,-1.82422 0.11914,-0.0476 0.55078,0.0137 0.55078,0.0137 1.19783,-0.58359 2.36845,-1.30531 3.55664,-1.9375 -1.12278,0.60691 -2.17723,1.28406 -3.1543,1.7793 2.50693,-0.33408 4.66639,-0.27018 6.70508,-0.73438 4.52072,-1.02948 8.98054,-2.32519 13.03516,-3.54101 -2.40247,0.16751 -4.70733,0.26116 -6.94531,0.41797 2.23553,-0.15919 4.53313,-0.2586 6.92578,-0.43555 0.41174,0.011 0.4375,0.0566 0.4375,0.0566 1.22082,-1.25204 2.44064,-2.5047 4.05078,-3.67188 0.38934,0.0849 0.48828,-0.008 0.48828,-0.008 0.0635,-0.33172 0.12613,-0.66263 0.35156,-1.17187 0.16193,-0.17752 0.40039,0.0918 0.40039,0.0918 0.33341,-0.72632 0.66693,-1.45102 1.44727,-2.33984 0.4469,-0.16254 0.49414,-0.46289 0.49414,-0.46289 0.1,-0.37946 0.19922,-0.75775 0.52148,-1.29883 0.22229,-0.16162 0.29297,-0.0957 0.29297,-0.0957 0.75058,-3.51166 1.50184,-7.02383 2.53906,-11.17774 0.18439,-1.37413 0.0809,-2.10602 -0.0215,-2.83789 -0.81637,-1.91526 -1.63092,-3.83017 -2.41406,-6.30078 0.0333,-0.55533 -0.22266,-0.76172 -0.22266,-0.76172 -0.26108,-0.21304 -0.52304,-0.42554 -0.85156,-0.82812 -0.0675,-0.18955 0.0508,-0.30664 0.0508,-0.30664 -0.73093,-0.70258 -1.46054,-1.40569 -2.2832,-2.74219 -0.67893,-1.13486 -1.26749,-1.63584 -2.24024,-2.11524 -1.91478,-0.61223 -3.66094,-1.45232 -5.375,-2.08593 1.70375,0.60305 3.42541,1.34579 5.2793,1.75781 -2.1665,-1.97865 -4.54872,-4.86511 -7.08984,-5.01367 -9.55058,-0.55835 -19.15246,-0.22266 -29.22657,-0.22266 -0.10772,1.93164 -0.32486,4.04099 -0.32812,6.15039 -0.0253,16.31815 0.12481,32.63691 -0.125,48.95117 -0.0481,3.14054 -1.02387,6.60065 -2.5918,9.32618 -6.13612,10.66621 -12.66246,21.10838 -19.08398,31.60937 -1.77289,2.89917 -3.68387,5.71366 -6.16797,9.55274 -0.39084,-2.83658 -0.60916,-4.42466 -0.82813,-6.01368 -0.18118,-0.008 -0.362,-0.0161 -0.80664,0.39649 0.0733,1.42084 0.0292,3.0906 0.18555,4.39062 -0.19027,-1.30421 -0.22699,-2.95279 -0.45703,-4.38281 -0.0111,-1.17206 -0.0147,-1.93112 -0.0117,-3.07031 0.01,-1.75803 0.0141,-3.1366 0.0137,-4.92774 -0.01,-3.7848 -0.0138,-7.15625 -0.0137,-10.98828 0.009,-12.46973 0.0113,-24.47908 0.01,-36.95508 -0.01,-22.68895 -0.026,-44.91213 0.008,-67.13476 0.002,-1.61314 0.37411,-3.22701 0.94336,-5.05078 z m 181.19336,77.66797 c -0.15277,9.72095 -0.10877,19.44518 -0.14454,29.16796 -10e-4,3.06726 -0.004,6.13587 -0.004,9.20313 6e-5,-3.06726 0.003,-6.13455 -0.33789,-9.28516 0.37744,-9.63941 0.33356,-19.36501 0.48633,-29.08593 z m -102.60938,16.06836 c -5.19301,2.10747 -10.11951,3.97616 -14.88672,6.18554 -2.11608,0.98065 -4.54016,2.24156 -5.74414,4.08203 -5.36302,8.19824 -10.35197,16.64272 -15.43359,25.02344 -0.78958,1.30215 -1.36222,2.7356 -2.20313,4.45117 9.60109,0 18.41778,0.35919 27.19141,-0.0977 9.33494,-0.48609 16.10852,-6.34942 18.79883,-15.19336 0.20123,-1.42331 0.40335,-2.84653 1.03515,-4.8125 0.37854,-1.89691 0.32746,-3.25119 0.27539,-4.60547 -0.47662,-1.2973 -0.95486,-2.59608 -1.26757,-4.40234 0.16394,-0.50898 0.0332,-0.72657 0.0332,-0.72657 -0.69699,-1.18664 -1.3952,-2.37399 -2.02149,-3.91601 0.0707,-0.35541 0.0703,-0.43555 0.0703,-0.43555 -0.44873,-0.35257 -0.89795,-0.70587 -1.33399,-1.60156 0.0127,-0.54312 -0.01,-0.97965 -0.33984,-1.0293 -1.50079,-1.04065 -2.67124,-2.03214 -4.17383,-2.92187 z m -87.08398,68.76171 c 0.1447,0.12277 0.29362,0.19196 0.45703,0.23047 0.28576,0.17136 0.57067,0.34299 0.96679,0.74024 0.11039,0.22586 0.10435,0.22528 0.51954,0.16797 2.69336,-0.35044 4.97107,-0.89216 7.25,-0.89844 -2.27893,0.006 -6.98441,-1.13179 -9.64783,-0.43614 5.95367,7.31773 14.61747,16.00891 21.08533,22.80137 7.61088,7.99292 13.66708,16.93192 21.8321,24.80017 19.43907,-0.0147 40.47166,-1.20451 59.69915,-1.20446 -19.26925,0.0272 -38.63715,0.16688 -58.28125,0.33984 -0.15191,0.004 -0.29359,0.005 -0.44532,0.01 -7.38481,-8.15414 -15.19571,-15.95441 -22.80468,-23.94532 -6.46786,-6.79246 -12.70342,-13.80403 -19.07227,-21.06445 -0.0299,-0.34521 -0.0248,-0.34445 -0.0234,-0.3418 -0.27539,-0.17605 -0.55115,-0.35382 -0.95312,-0.75 -0.2388,-0.16201 -0.41934,-0.29536 -0.58203,-0.44922 z"
   sodipodi:nodetypes="csssscccccccsccccccccccccsccccccsccsccccscccccscscccccccccccccccccccccccccsccccccccccccsccccccccccccccccccccccccccccccccccccccccccscsssscccccccccscccscccssccsccccccccccccccccsccccsccccccccc" />
<path
   fill="#353538"
   opacity="1.000000"
   stroke="none"
   d=" M403.230347,457.591766   C417.133636,451.346039 438.128998,457.655212 443.360840,469.606262   C447.721802,479.567902 447.170624,489.772827 442.489624,499.541870   C439.306793,506.184357 433.375519,509.891296 426.375824,510.877106   C418.901337,511.929779 411.262665,511.816681 403.169159,512.239990   C403.169159,493.519409 403.169159,475.775116 403.230347,457.591766  M432.036438,474.785309   C429.153534,469.411224 424.315277,467.644775 418.648041,468.026123   C417.441223,468.107330 415.390472,469.887360 415.358032,470.935181   C415.090210,479.584015 415.106140,488.247528 415.342194,496.898224   C415.369568,497.902649 417.172516,499.575562 418.304840,499.716919   C425.819458,500.655304 432.409943,495.789551 433.185699,488.261688   C433.616699,484.079407 432.674347,479.755646 432.036438,474.785309  z"
   id="path3" />
<path
   fill="#353539"
   opacity="1.000000"
   stroke="none"
   d=" M587.149170,483.995117   C586.768677,494.418549 584.096191,503.302460 574.766479,508.522430   C559.906189,516.836731 542.408997,509.330414 539.076721,492.610229   C537.791321,486.160309 538.011292,478.854706 539.670532,472.493347   C542.779358,460.574982 553.056335,454.775238 565.869080,456.032532   C577.068787,457.131531 585.465637,466.088135 586.913452,478.539093   C587.105042,480.186707 587.076904,481.859894 587.149170,483.995117  M570.279846,496.858887   C575.617920,490.704498 576.026672,483.625977 573.753906,476.274170   C571.970703,470.506104 567.551758,467.662415 561.688110,467.875366   C556.783875,468.053436 552.308838,471.455231 551.200684,476.923523   C550.427734,480.737274 550.326965,484.878448 550.886841,488.733856   C552.340271,498.742279 560.914917,502.513458 570.279846,496.858887  z"
   id="path4" />
<path
   fill="#343437"
   opacity="1.000000"
   stroke="none"
   d=" M299.214111,456.462189   C305.813690,457.158142 311.211243,459.824188 313.374817,466.493408   C316.514984,476.172791 313.901642,484.210754 305.147919,489.971649   C309.003937,497.147064 312.642181,503.917267 316.285583,510.696991   C309.082001,514.068359 303.871796,512.440430 300.739227,506.146179   C299.182587,503.018433 297.542450,499.932404 295.959686,496.817535   C293.106140,491.201721 293.112305,491.198578 286.012817,492.514496   C286.012817,498.666504 286.012817,504.918701 286.012817,511.480896   C281.831360,511.480896 278.108856,511.480896 273.928741,511.480896   C273.928741,494.153412 273.928741,477.035614 274.450928,459.459229   C282.092682,458.666016 289.215729,458.385132 296.327972,457.934753   C297.317139,457.872131 298.253387,456.973724 299.214111,456.462189  M285.980743,467.784973   C285.980743,472.359009 285.980743,476.933014 285.980743,481.700043   C289.822296,481.700043 293.136414,482.072174 296.328735,481.607513   C300.486847,481.002228 302.986481,477.745148 302.620026,473.931213   C302.369476,471.323944 300.190735,467.433197 298.072632,466.800964   C294.436340,465.715485 290.173737,466.728027 285.980743,467.784973  z"
   id="path5" />
<path
   fill="#313237"
   opacity="1.000000"
   stroke="none"
   d=" M502.084595,459.778595   C505.047607,462.196198 509.063446,464.030243 510.784790,467.136017   C517.028870,478.401855 516.583252,490.084717 510.186035,501.207275   C506.686951,507.291046 500.925720,510.527008 493.220764,510.851593   C489.427948,510.283417 486.212402,509.587738 483.116425,509.940613   C478.003906,510.523407 474.045929,508.551697 474.016663,504.448547   C473.928986,492.158752 473.912659,479.867340 474.019135,467.577850   C474.060608,462.793182 478.231201,459.126343 482.970367,458.942139   C487.065674,458.782990 491.146912,458.261414 495.234375,457.900055   C495.927490,457.918579 496.620575,457.937134 497.708496,458.360352   C498.997467,460.803314 500.135406,461.884247 502.084595,459.778595  M484.178284,497.943634   C485.480255,498.601227 486.777985,499.819946 488.084839,499.829895   C501.579132,499.932190 504.198242,487.184296 501.373840,477.016022   C499.243042,469.344910 492.427185,466.283508 484.111450,468.893951   C484.111450,478.177094 484.111450,487.604614 484.178284,497.943634  z"
   id="path6" />
<path
   fill="#343437"
   opacity="1.000000"
   stroke="none"
   d=" M208.300964,480.009583   C208.234222,479.557861 208.167465,479.106110 208.566757,478.311157   C213.415878,476.699219 213.359146,472.797760 212.262833,470.065521   C210.560547,465.823120 212.418076,464.413269 214.914948,463.295410   C217.072311,464.434937 218.673187,465.280548 220.206940,466.574829   C220.139816,470.464844 220.139816,473.906250 220.139816,477.228271   C228.502731,478.799133 234.040756,477.270935 234.909286,473.305298   C235.966034,468.480347 232.895859,466.799164 228.931702,465.512268   C227.337494,463.201141 226.435226,461.726440 230.119598,460.917267   C233.882599,460.090759 237.073471,460.143402 240.270813,462.649933   C241.517212,463.627075 243.623856,463.506866 245.338654,463.886505   C249.286438,471.401825 245.617813,477.151337 240.836502,482.579132   C249.658890,488.483398 252.353058,496.675232 246.993225,503.673706   C244.673523,506.702515 240.503448,508.400146 236.999329,510.395935   C235.478027,511.262390 233.516327,511.355652 231.284546,511.406555   C228.398636,509.125977 225.947678,506.748779 224.007721,511.500854   C223.245743,511.569641 222.483765,511.638428 221.335052,511.231995   C220.137924,510.155121 219.410828,509.336792 218.503296,508.988068   C213.652222,507.124054 208.806610,505.398743 209.906296,498.552460   C210.025482,497.810425 208.869476,496.863586 208.304962,496.011719   C208.240860,493.957855 208.176743,491.903992 208.556732,489.356842   C209.969543,486.451752 211.013367,484.062042 211.743286,481.580017   C211.793640,481.408783 209.502960,480.549103 208.300964,480.009583  M220.812775,488.085938   C220.722305,492.426880 220.631821,496.767822 220.541336,501.108795   C224.584167,501.095886 228.651016,501.350281 232.662643,500.989990   C236.211243,500.671265 237.625107,497.852173 237.719879,494.644043   C237.819077,491.286469 236.168793,488.842194 232.604507,488.469757   C228.997269,488.092865 225.356018,488.041534 220.812775,488.085938  M209.523239,493.406616   C209.523239,493.406616 209.591736,493.522369 209.523239,493.406616  z"
   id="path7" />
<path
   fill="#353539"
   opacity="1.000000"
   stroke="none"
   d=" M637.129456,480.431793   C637.129456,480.431793 637.177490,480.771423 636.714539,480.944214   C633.555542,487.384766 634.532104,490.197540 640.030273,492.000732   C643.598145,498.290405 647.166016,504.580109 651.290344,511.850769   C646.634094,511.850769 643.012634,512.156860 639.491272,511.696808   C638.124695,511.518219 636.530212,509.839172 635.821289,508.445892   C633.052063,503.002808 630.595581,497.400574 627.557922,490.855865   C625.043823,496.735229 622.659607,501.574829 620.910278,506.633942   C619.498657,510.716522 617.333252,512.612366 612.915894,511.903320   C610.837891,511.569794 608.661987,511.846161 605.415649,511.846161   C609.248901,504.561798 612.267151,497.755585 616.248962,491.569519   C620.012146,485.723145 620.410889,480.789368 616.405884,474.843994   C612.649048,469.267120 609.959351,462.971283 606.261536,455.972534   C610.879944,455.972534 614.768066,455.809662 618.623596,456.091858   C619.539795,456.158875 620.653503,457.569458 621.152039,458.612640   C623.512268,463.551880 625.690674,468.578064 628.190552,474.133850   C629.235291,475.177429 630.204163,476.235077 630.782654,476.052917   C635.528137,474.558502 636.112244,474.899872 637.129456,480.431793  z"
   id="path8" />
<path
   fill="#353539"
   opacity="1.000000"
   stroke="none"
   d=" M348.945496,497.815002   C348.308350,499.976929 347.671204,502.138885 346.573608,504.713196   C345.080200,506.418335 344.047241,507.711121 343.001526,508.630188   C342.889496,507.772583 342.923462,506.955627 342.670990,506.854614   C338.683075,505.258728 338.886169,503.279022 340.914307,499.724792   C343.450470,495.280273 345.130524,490.265442 346.624207,485.328583   C348.482178,479.187592 349.555145,472.808868 351.417297,466.669373   C352.135956,464.299988 353.874268,461.883606 357.289825,463.464874   C357.181946,464.584991 357.087494,465.565796 356.844818,466.916931   C354.856934,473.970856 353.017242,480.654388 351.094849,487.638367   C355.326141,487.638367 359.022675,487.638367 362.988007,487.638367   C361.264923,480.497162 359.636261,473.747375 358.275574,466.762115   C358.872437,465.147125 359.201355,463.767578 359.350739,463.140961   C362.176697,463.468109 364.555084,463.743469 366.933472,464.018799   C370.981476,477.069244 375.029449,490.119690 378.797729,503.802490   C377.191071,505.935242 375.183044,508.921844 374.654541,508.679718   C372.321838,507.610809 368.997162,507.186218 369.271393,502.979279   C369.373657,501.410614 367.117828,499.688232 365.937225,498.035950   C365.937225,498.035950 366.004822,498.017914 365.921326,497.654236   C361.989075,496.662201 358.153290,495.706482 354.285675,495.553345   C352.538208,495.484161 350.727509,497.011780 348.945496,497.815002  z"
   id="path9" />
<path
   fill="#2C2C2F"
   opacity="1.000000"
   stroke="none"
   d=" M356.993042,466.546600   C357.087494,465.565796 357.181946,464.584991 357.289825,463.464874   C353.874268,461.883606 352.135956,464.299988 351.417297,466.669373   C349.555145,472.808868 348.482178,479.187592 346.624207,485.328583   C345.130524,490.265442 343.450470,495.280273 340.914307,499.724792   C338.886169,503.279022 338.683075,505.258728 342.670990,506.854614   C342.923462,506.955627 342.889496,507.772583 342.644470,508.788269   C339.014343,510.993103 336.526398,510.158569 334.799133,506.933411   C335.494843,504.519592 336.190582,502.105774 337.336090,499.312744   C337.823303,498.278229 337.860718,497.622986 337.898132,496.967712   C341.588196,484.041962 345.237030,471.103973 349.056183,458.216461   C349.326996,457.302704 350.820801,456.194366 351.796967,456.142822   C356.084351,455.916229 360.390503,456.045044 364.282837,456.045044   C365.312561,458.806763 366.137726,461.019836 366.948181,463.625854   C364.555084,463.743469 362.176697,463.468109 359.350739,463.140961   C359.201355,463.767578 358.872437,465.147125 358.030212,466.630798   C357.342285,466.672119 357.167664,466.609375 356.993042,466.546600  z"
   id="path10" />
<path
   fill="#2C2C2F"
   opacity="1.000000"
   stroke="none"
   d=" M245.246674,463.546448   C243.623856,463.506866 241.517212,463.627075 240.270813,462.649933   C237.073471,460.143402 233.882599,460.090759 230.119598,460.917267   C226.435226,461.726440 227.337494,463.201141 228.492310,465.549622   C225.501144,465.982758 222.887604,466.054474 220.274078,466.126160   C218.673187,465.280548 217.072311,464.434937 214.914948,463.295410   C212.418076,464.413269 210.560547,465.823120 212.262833,470.065521   C213.359146,472.797760 213.415878,476.699219 208.663834,477.979004   C208.294876,470.884827 208.294876,463.779541 208.294876,455.530792   C217.877670,456.116028 227.431259,456.274445 236.840164,457.523224   C239.810776,457.917480 242.394104,461.229645 245.246674,463.546448  z"
   id="path11" />


<path
   fill="#3B3C3E"
   opacity="1.000000"
   stroke="none"
   d=" M495.061920,457.539429   C491.146912,458.261414 487.065674,458.782990 482.970367,458.942139   C478.231201,459.126343 474.060608,462.793182 474.019135,467.577850   C473.912659,479.867340 473.928986,492.158752 474.016663,504.448547   C474.045929,508.551697 478.003906,510.523407 483.116425,509.940613   C486.212402,509.587738 489.427948,510.283417 492.818665,510.817871   C486.303558,511.451477 479.559540,511.775269 472.395935,512.119141   C472.395935,493.230804 472.395935,474.938141 472.395935,455.511566   C479.945404,456.071136 487.417419,456.625000 495.061920,457.539429  z"
   id="path14" />
<path
   fill="#313237"
   opacity="1.000000"
   stroke="none"
   d=" M637.402344,480.178925   C636.112244,474.899872 635.528137,474.558502 630.782654,476.052917   C630.204163,476.235077 629.235291,475.177429 628.220703,474.520081   C628.894348,473.371063 630.021118,472.520996 630.642456,471.392639   C631.593323,469.665680 632.216980,467.755127 632.942627,465.908020   C637.240479,454.968048 637.236938,454.966644 649.834473,456.528625   C648.736084,458.671295 647.714966,460.663025 646.043945,462.846558   C641.069031,465.253601 635.422791,466.312378 636.567200,473.860626   C637.883057,473.860626 639.298828,473.860626 640.714600,473.860626   C639.701477,475.882446 638.688354,477.904236 637.402344,480.178925  M636.608765,463.797455   C636.214111,463.793152 635.819519,463.788849 635.424866,463.784546   C635.423401,463.948303 635.410889,464.254303 635.422119,464.255157   C635.814697,464.285645 636.209534,464.287384 636.608765,463.797455  z"
   id="path15" />
<path
   fill="#3B3C3E"
   opacity="1.000000"
   stroke="none"
   d=" M365.965393,498.445374   C367.117828,499.688232 369.373657,501.410614 369.271393,502.979279   C368.997162,507.186218 372.321838,507.610809 374.654541,508.679718   C375.183044,508.921844 377.191071,505.935242 378.802582,504.200317   C379.804596,506.366089 380.522095,508.766388 381.381195,511.640472   C377.783722,511.640472 374.365753,511.891693 371.024017,511.497192   C369.930756,511.368103 368.533508,509.717499 368.148376,508.488983   C367.167358,505.359955 366.679016,502.076447 365.965393,498.445374  z"
   id="path16" />
<path
   fill="#2C2C2F"
   opacity="1.000000"
   stroke="none"
   d=" M208.210358,496.469543   C208.869476,496.863586 210.025482,497.810425 209.906296,498.552460   C208.806610,505.398743 213.652222,507.124054 218.503296,508.988068   C219.410828,509.336792 220.137924,510.155121 220.970490,511.103027   C216.785492,511.449310 212.578293,511.449310 208.115768,511.449310   C208.115768,506.356781 208.115768,501.642059 208.210358,496.469543  z"
   id="path17" />
<path
   fill="#353539"
   opacity="1.000000"
   stroke="none"
   d=" M640.894836,473.628052   C639.298828,473.860626 637.883057,473.860626 636.567200,473.860626   C635.422791,466.312378 641.069031,465.253601 645.776123,463.048645   C644.463806,466.504425 642.769409,469.949921 640.894836,473.628052  z"
   id="path18" />
<path
   fill="#2C2C2F"
   opacity="1.000000"
   stroke="none"
   d=" M298.815338,456.323608   C298.253387,456.973724 297.317139,457.872131 296.327972,457.934753   C289.215729,458.385132 282.092682,458.666016 274.539825,458.997620   C273.224365,456.229370 274.827301,455.989746 276.970306,456.020630   C284.118378,456.123657 291.267700,456.137177 298.815338,456.323608  z"
   id="path19" />
<path
   fill="#3B3C3E"
   opacity="1.000000"
   stroke="none"
   d=" M334.548370,507.178040   C336.526398,510.158569 339.014343,510.993103 342.657196,509.162018   C344.047241,507.711121 345.080200,506.418335 346.426697,505.058228   C345.490662,512.376709 345.490662,512.376709 333.252441,511.463989   C333.617950,510.050720 333.957794,508.736725 334.548370,507.178040  z"
   id="path20" />
<path
   fill="#3B3C3E"
   opacity="1.000000"
   stroke="none"
   d=" M349.415527,497.780090   C350.727509,497.011780 352.538208,495.484161 354.285675,495.553345   C358.153290,495.706482 361.989075,496.662201 365.898254,497.680542   C360.600952,497.962067 355.243286,497.853638 349.415527,497.780090  z"
   id="path21" />
<path
   fill="#2C2C2F"
   opacity="1.000000"
   stroke="none"
   d=" M208.212677,480.451630   C209.502960,480.549103 211.793640,481.408783 211.743286,481.580017   C211.013367,484.062042 209.969543,486.451752 208.655579,488.926208   C208.248337,486.290466 208.186356,483.592072 208.212677,480.451630  z"
   id="path22" />
<path
   fill="#313237"
   opacity="1.000000"
   stroke="none"
   d=" M639.979492,491.631531   C634.532104,490.197540 633.555542,487.384766 636.587585,481.059509   C634.863525,485.318878 638.662964,487.919556 639.979492,491.631531  z"
   id="path23" />
<path
   fill="#58989B"
   opacity="1.000000"
   stroke="none"
   d=" M341.424561,411.840698   C347.434113,411.546448 353.894318,411.397705 360.684265,411.497131   C354.634369,411.825592 348.254791,411.905914 341.424561,411.840698  z"
   id="path24" />
<path
   fill="#2C2C2F"
   opacity="1.000000"
   stroke="none"
   d=" M224.434616,511.605194   C225.947678,506.748779 228.398636,509.125977 230.900879,511.346497   C228.945358,511.689850 226.903442,511.699677 224.434616,511.605194  z"
   id="path25" />
<path
   fill="#58989B"
   opacity="1.000000"
   stroke="none"
   d=" M552.435852,399.500763   C550.508606,401.278137 548.581421,403.055511 546.337524,404.926636   C546.020813,405.020325 545.912659,404.911865 545.966309,404.541870   C548.008606,402.443115 549.997192,400.714355 552.097595,399.114990   C552.209412,399.244415 552.435852,399.500763 552.435852,399.500763  z"
   id="path26" />
<path
   fill="#3B3C3E"
   opacity="1.000000"
   stroke="none"
   d=" M501.979431,459.512421   C500.135406,461.884247 498.997467,460.803314 498.049866,458.420929   C499.289062,458.466644 500.581665,458.856445 501.979431,459.512421  z"
   id="path27" />
<path
   fill="#58989B"
   opacity="1.000000"
   stroke="none"
   d=" M558.036255,392.080811   C557.241577,393.309875 556.446899,394.538910 555.321838,395.880249   C554.991455,395.992493 554.866760,395.872345 554.921387,395.525574   C555.968567,394.043976 556.961060,392.909119 557.993896,391.845612   C558.034241,391.916962 558.036255,392.080811 558.036255,392.080811  z"
   id="path28" />
<path
   fill="#478484"
   opacity="1.000000"
   stroke="none"
   d=" M561.309326,385.257202   C560.820984,386.785950 560.222046,388.225891 559.325073,389.847229   C559.026978,390.028564 558.944824,389.964630 558.966187,389.610840   C559.651794,387.833710 560.316101,386.410431 560.980408,384.987122   C560.980408,384.987122 561.198730,385.168396 561.309326,385.257202  z"
   id="path29" />
<path
   fill="#58989B"
   opacity="1.000000"
   stroke="none"
   d=" M555.053711,396.052612   C554.396240,397.126038 553.676453,398.139343 552.696289,399.326691   C552.435852,399.500763 552.209412,399.244415 552.141724,398.784363   C553.005005,397.507019 553.935852,396.689667 554.866760,395.872345   C554.866760,395.872345 554.991455,395.992493 555.053711,396.052612  z"
   id="path30" />
<path
   fill="#3B3C3E"
   opacity="1.000000"
   stroke="none"
   d=" M337.685486,497.160370   C337.860718,497.622986 337.823303,498.278229 337.507202,498.976593   C337.309967,498.464142 337.391418,497.908569 337.685486,497.160370  z"
   id="path31" />
<path
   fill="#478484"
   opacity="1.000000"
   stroke="none"
   d=" M563.254639,185.626068   C562.857239,185.061951 562.513306,184.115616 562.278625,182.767548   C562.694580,183.325165 563.001343,184.284515 563.254639,185.626068  z"
   id="path32" />
<path
   fill="#478484"
   opacity="1.000000"
   stroke="none"
   d=" M562.334778,181.613876   C561.904785,181.152863 561.475342,180.338760 561.119263,179.151306   C561.573547,179.605560 561.954407,180.433182 562.334778,181.613876  z"
   id="path33" />
<path
   fill="#478484"
   opacity="1.000000"
   stroke="none"
   d=" M559.066406,390.062469   C558.910767,390.643188 558.715637,391.190002 558.278381,391.908813   C558.036255,392.080811 558.034241,391.916962 558.035889,391.580139   C558.340027,390.817108 558.642395,390.390869 558.944824,389.964630   C558.944824,389.964630 559.026978,390.028564 559.066406,390.062469  z"
   id="path34" />
<path
   fill="#58989B"
   opacity="1.000000"
   stroke="none"
   d=" M337.257996,411.198578   C337.549347,411.020782 338.030090,411.020844 338.705078,411.169037   C338.415344,411.336914 337.931366,411.356659 337.257996,411.198578  z"
   id="path35" />

<path
   fill="#FAFDFD"
   opacity="1.000000"
   stroke="none"
   d=" M484.987000,278.955933   C491.228088,289.011627 497.375519,299.272308 496.675171,311.607758   C496.287384,318.438354 494.266266,325.176239 492.675018,332.513184   C492.167908,333.690247 491.967133,334.310059 491.766357,334.929871   C491.766357,334.929871 491.887024,334.924011 491.573120,335.037506   C490.476685,336.754242 489.694183,338.357483 488.911682,339.960724   C488.911682,339.960724 488.984314,339.988770 488.720642,340.132202   C488.207428,340.832458 487.957886,341.389282 487.708313,341.946106   C487.380219,342.012177 487.164246,342.204285 486.765686,342.892273   C486.214172,343.791687 485.957367,344.321259 485.700562,344.850830   C485.700562,344.850830 485.833221,344.809723 485.474976,344.872131   C482.385437,347.609375 479.654144,350.284180 476.922882,352.958984   C476.922882,352.958984 476.987152,352.989990 476.716858,353.024780   C476.247894,353.350983 476.049225,353.642365 475.850586,353.933716   C475.850586,353.933746 475.943878,353.893433 475.599945,353.907166   C474.446259,354.568207 473.636475,355.215515 472.826721,355.862793   C472.826691,355.862793 472.931915,355.904388 472.625061,355.878052   C471.833160,356.202911 471.348145,356.554077 470.863159,356.905273   C470.863159,356.905273 470.958008,356.933929 470.648071,356.898926   C469.844421,357.208191 469.350739,357.552399 468.857086,357.896606   C468.857086,357.896637 468.951965,357.893494 468.566742,357.906036   C466.251587,358.906586 464.321625,359.894592 462.391663,360.882568   C462.073883,360.835175 461.756073,360.787750 460.815796,360.867798   C455.105011,361.600800 450.022339,362.671539 444.927551,362.732819   C420.626312,363.025116 396.321838,363.043152 372.018494,363.158783   C373.328430,360.072601 374.638367,356.986420 376.328186,353.414734   C377.178406,351.981812 377.648773,351.034393 378.119171,350.086975   C378.119171,350.086975 378.009399,350.006500 378.318054,349.908752   C378.826477,349.254822 379.026184,348.698669 379.225891,348.142517   C379.225922,348.142517 379.042206,348.050903 379.395874,347.956909   C380.209381,346.940491 380.669159,346.018036 381.128967,345.095581   C381.128967,345.095581 381.002045,345.016968 381.328491,344.903503   C382.114166,343.867340 382.573425,342.944580 383.032715,342.021851   C383.032715,342.021851 382.997711,342.003540 383.297668,341.838379   C389.070312,332.817261 394.661438,324.031738 399.980927,315.084717   C404.859955,306.878448 409.446106,298.498047 414.145081,290.186768   C414.128784,290.179199 414.161591,290.186920 414.417664,290.110474   C414.853058,289.743561 415.032379,289.453064 415.125549,289.109253   C415.039429,289.055969 415.182892,289.198944 415.425964,289.088562   C415.775360,288.652679 415.881683,288.327179 415.995667,288.000305   C416.003296,287.998871 415.996643,287.983826 416.271820,287.793518   C417.469360,285.815491 418.391724,284.027832 419.209747,282.110291   C419.105408,281.980408 419.289764,282.257690 419.522400,282.134216   C419.853210,281.682251 419.951416,281.353760 420.022919,281.016388   C419.996246,281.007507 420.036865,281.046814 420.297394,280.895081   C420.757782,280.189789 420.957611,279.636230 421.095642,279.062897   C421.033844,279.043091 421.129974,279.130310 421.385071,278.984589   C421.870758,278.311005 422.101349,277.783142 422.166931,277.131348   C422.001892,277.007416 422.336731,277.248199 422.577789,277.110168   C423.035339,276.467529 423.251831,275.962952 423.253174,275.417114   C423.038025,275.375854 423.468231,275.437286 423.870728,275.278931   C426.377655,274.944855 428.536591,275.008698 430.575287,274.544495   C435.096008,273.515015 439.556427,272.220581 444.022766,271.015747   C444.004150,270.997345 444.028503,271.042694 444.353027,271.010315   C445.914581,269.839905 447.151611,268.701843 448.429169,267.510071   C448.469666,267.456329 448.567688,267.364227 448.773621,267.251160   C449.220551,266.903717 449.331329,266.618683 449.196899,266.148499   C449.081970,266.014038 449.320007,266.284058 449.600067,266.168030   C450.250397,265.363007 450.620667,264.673950 451.102478,263.882477   C451.214050,263.780060 451.261261,263.480865 451.507263,263.316681   C451.868042,262.784851 451.982849,262.417175 452.051697,262.034424   C452.005768,262.019287 452.076508,262.085297 452.375122,261.874725   C453.384216,258.110779 454.094696,254.557419 454.853394,250.634933   C454.799316,249.533951 454.696991,248.802094 454.671265,247.717270   C453.927307,245.420578 453.106659,243.476852 452.249023,241.373428   C452.211975,241.213745 451.957031,241.007675 451.939362,240.744019   C451.656738,240.269791 451.391785,240.059219 451.082886,239.919037   C451.038940,239.989441 451.157013,239.872742 451.128967,239.556702   C450.393372,238.511551 449.685883,237.782425 448.879578,236.775238   C448.193542,235.996246 447.606354,235.495300 446.921692,234.666855   C444.369690,232.709732 441.988586,229.822922 439.447418,229.674362   C429.896790,229.116013 420.293915,229.450531 410.219757,229.450531   C410.112030,231.382172 409.895721,233.491241 409.892456,235.600647   C409.867188,251.918854 410.018341,268.239197 409.768524,284.553558   C409.720398,287.694092 408.744354,291.153412 407.176422,293.878937   C401.040253,304.545197 394.512573,314.986877 388.091003,325.487915   C386.318115,328.387085 384.408813,331.202789 381.924713,335.041870   C381.533875,332.205292 381.314941,330.616272 381.169189,328.654053   C381.186676,327.525818 381.130920,326.770752 381.249634,325.738617   C381.318176,323.971161 381.212250,322.480743 381.188782,320.539062   C381.212250,316.731567 381.153259,313.375305 381.283142,309.659424   C381.320679,297.201843 381.169342,285.103912 381.091370,272.541687   C381.221924,248.416321 381.279083,224.755234 381.336243,201.094162   C394.432220,201.367981 407.530121,201.573837 420.623505,201.940689   C428.696350,202.166901 436.907684,201.810272 444.797302,203.194519   C456.611572,205.267319 466.126251,211.765793 473.417236,222.229691   C474.181152,223.153839 474.606140,223.571884 475.031158,223.989914   C475.053284,224.304398 475.162842,224.584686 475.553192,224.949707   C481.737671,236.430862 484.466370,248.395889 482.147888,261.203278   C481.557709,264.463501 480.461761,267.632141 479.643311,271.251465   C479.688354,271.660065 479.703461,271.706390 479.442261,271.803467   C479.083740,272.253723 478.986420,272.606903 478.930664,272.968353   C478.972290,272.976654 478.930756,272.902618 478.664337,273.094727   C478.166565,273.899536 477.935242,274.512207 477.459686,275.334778   C473.512512,283.864166 466.918701,289.600281 459.550415,295.041992   C454.357361,297.149506 449.431488,299.016418 444.664276,301.225800   C442.548187,302.206451 440.123779,303.467346 438.919800,305.307861   C433.556732,313.506104 428.568756,321.950409 423.487091,330.331177   C422.697510,331.633331 422.124878,333.067017 421.283966,334.782593   C430.885101,334.782593 439.701263,335.141571 448.474945,334.684723   C457.809937,334.198639 464.583984,328.335571 467.522888,319.237427   C468.028015,317.631989 468.284546,316.280701 468.640106,314.532898   C468.687134,312.782104 468.635101,311.427795 468.652191,309.729889   C468.274933,308.057220 467.828552,306.728180 467.431610,305.281372   C467.481018,305.163635 467.349274,304.944855 467.363525,304.588135   C466.745300,303.046051 466.112885,301.860748 465.440094,300.674774   C465.399750,300.674133 465.398926,300.593445 465.325439,300.320648   C464.857391,299.660706 464.462830,299.273560 464.073181,298.667969   C464.078094,298.449493 464.054565,298.013092 464.322479,297.819183   C470.007263,291.696442 475.580292,285.898956 480.746124,279.758911   C482.301025,277.910767 483.219055,277.437683 484.987000,278.955933  z"
   id="path37" />




<path
   fill="#099190"
   opacity="1.000000"
   stroke="none"
   d=" M380.005249,310.444824   C380.191010,309.994659 380.371490,310.004486 380.823120,310.016724   C381.153259,313.375305 381.212250,316.731567 380.915833,320.539917   C380.378693,321.001678 380.196991,321.011292 380.015289,321.020874   C380.010193,317.648865 380.005096,314.276855 380.005249,310.444824  z"
   id="path42"
   style="fill:#fafdfd;fill-opacity:1" />
<path
   fill="#379B9B"
   opacity="1.000000"
   stroke="none"
   d=" M380.019897,321.433716   C380.196991,321.011292 380.378693,321.001678 380.833374,320.991211   C381.212250,322.480743 381.318176,323.971161 380.983643,325.735596   C380.366119,326.000244 380.189056,325.990906 380.011993,325.981537   C380.016144,324.603210 380.020325,323.224854 380.019897,321.433716  z"
   id="path43"
   style="fill:#fafdfd;fill-opacity:1" />
<path
   fill="#379B9B"
   opacity="1.000000"
   stroke="none"
   d=" M382.680878,342.073486   C382.573425,342.944580 382.114166,343.867340 381.384216,344.953247   C381.518707,344.119324 381.923889,343.122223 382.680878,342.073486  z"
   id="path44" />
<path
   fill="#379B9B"
   opacity="1.000000"
   stroke="none"
   d=" M380.770508,345.140015   C380.669159,346.018036 380.209381,346.940491 379.475464,348.021729   C379.604950,347.181854 380.008514,346.183136 380.770508,345.140015  z"
   id="path45" />
<path
   fill="#379B9B"
   opacity="1.000000"
   stroke="none"
   d=" M377.752075,350.121460   C377.648773,351.034393 377.178406,351.981812 376.428528,353.091980   C376.561005,352.221802 376.972992,351.188873 377.752075,350.121460  z"
   id="path46" />
<path
   fill="#099190"
   opacity="1.000000"
   stroke="none"
   d=" M380.006317,326.361237   C380.189056,325.990906 380.366119,326.000244 380.809204,326.012634   C381.130920,326.770752 381.186676,327.525818 381.169189,328.654053   C380.914795,329.019379 380.733643,329.011505 380.280670,329.011536   C380.006134,328.259949 380.003387,327.500427 380.006317,326.361237  z"
   id="path47"
   style="fill:#fafdfd;fill-opacity:1" />
<path
   fill="#3C9498"
   opacity="1.000000"
   stroke="none"
   d=" M475.018768,223.655411   C474.606140,223.571884 474.181152,223.153839 473.675720,222.435059   C474.065704,222.529831 474.536041,222.925369 475.018768,223.655411  z"
   id="path48" />
<path
   fill="#379B9B"
   opacity="1.000000"
   stroke="none"
   d=" M378.931824,348.261017   C379.026184,348.698669 378.826477,349.254822 378.363831,349.959076   C378.279877,349.531281 378.458801,348.955414 378.931824,348.261017  z"
   id="path49" />

<path
   fill="#F7F7F8"
   opacity="1.000000"
   stroke="none"
   d=" M432.193726,475.140472   C432.674347,479.755646 433.616699,484.079407 433.185699,488.261688   C432.409943,495.789551 425.819458,500.655304 418.304840,499.716919   C417.172516,499.575562 415.369568,497.902649 415.342194,496.898224   C415.106140,488.247528 415.090210,479.584015 415.358032,470.935181   C415.390472,469.887360 417.441223,468.107330 418.648041,468.026123   C424.315277,467.644775 429.153534,469.411224 432.193726,475.140472  z"
   id="path51" />
<path
   fill="#F9F9F9"
   opacity="1.000000"
   stroke="none"
   d=" M569.995239,497.107239   C560.914917,502.513458 552.340271,498.742279 550.886841,488.733856   C550.326965,484.878448 550.427734,480.737274 551.200684,476.923523   C552.308838,471.455231 556.783875,468.053436 561.688110,467.875366   C567.551758,467.662415 571.970703,470.506104 573.753906,476.274170   C576.026672,483.625977 575.617920,490.704498 569.995239,497.107239  z"
   id="path52" />
<path
   fill="#F9F9F9"
   opacity="1.000000"
   stroke="none"
   d=" M286.077393,467.322418   C290.173737,466.728027 294.436340,465.715485 298.072632,466.800964   C300.190735,467.433197 302.369476,471.323944 302.620026,473.931213   C302.986481,477.745148 300.486847,481.002228 296.328735,481.607513   C293.136414,482.072174 289.822296,481.700043 285.980743,481.700043   C285.980743,476.933014 285.980743,472.359009 286.077393,467.322418  z"
   id="path53" />
<path
   fill="#F9F9F9"
   opacity="1.000000"
   stroke="none"
   d=" M484.144867,497.487885   C484.111450,487.604614 484.111450,478.177094 484.111450,468.893951   C492.427185,466.283508 499.243042,469.344910 501.373840,477.016022   C504.198242,487.184296 501.579132,499.932190 488.084839,499.829895   C486.777985,499.819946 485.480255,498.601227 484.144867,497.487885  z"
   id="path54" />
<path
   fill="#F7F7F8"
   opacity="1.000000"
   stroke="none"
   d=" M221.271225,487.966797   C225.356018,488.041534 228.997269,488.092865 232.604507,488.469757   C236.168793,488.842194 237.819077,491.286469 237.719879,494.644043   C237.625107,497.852173 236.211243,500.671265 232.662643,500.989990   C228.651016,501.350281 224.584167,501.095886 220.541336,501.108765   C220.631821,496.767822 220.722305,492.426880 221.271225,487.966797  z"
   id="path55" />
<path
   fill="#F7F7F8"
   opacity="1.000000"
   stroke="none"
   d=" M220.206940,466.574829   C222.887604,466.054474 225.501144,465.982758 228.554062,465.873688   C232.895859,466.799164 235.966034,468.480347 234.909286,473.305298   C234.040756,477.270935 228.502731,478.799133 220.139816,477.228271   C220.139816,473.906250 220.139816,470.464844 220.206940,466.574829  z"
   id="path56" />
<path
   fill="#2C2C2F"
   opacity="1.000000"
   stroke="none"
   d=" M209.557495,493.464478   C209.591736,493.522369 209.523239,493.406616 209.557495,493.464478  z"
   id="path57" />
<path
   fill="#F7F7F8"
   opacity="1.000000"
   stroke="none"
   d=" M356.844849,466.916931   C357.167664,466.609375 357.342285,466.672119 357.762268,466.866211   C359.636261,473.747375 361.264923,480.497162 362.988007,487.638367   C359.022675,487.638367 355.326141,487.638367 351.094849,487.638367   C353.017242,480.654388 354.856934,473.970856 356.844849,466.916931  z"
   id="path58" />
<path
   fill="#353539"
   opacity="1.000000"
   stroke="none"
   d=" M636.606384,464.045319   C636.209534,464.287384 635.814697,464.285645 635.422119,464.255157   C635.410889,464.254303 635.423401,463.948303 635.424866,463.784546   C635.819519,463.788849 636.214111,463.793152 636.606384,464.045319  z"
   id="path59" />

<path
   fill="#478484"
   opacity="1.000000"
   stroke="none"
   d=" M477.294189,352.971008   C479.654144,350.284180 482.385437,347.609375 485.426331,344.822632   C483.045807,347.468109 480.355652,350.225586 477.294189,352.971008  z"
   id="path61" />

<path
   fill="#478484"
   opacity="1.000000"
   stroke="none"
   d=" M489.275299,339.926880   C489.694183,338.357483 490.476685,336.754242 491.549377,334.981995   C491.105988,336.506348 490.372437,338.199707 489.275299,339.926880  z"
   id="path63" />
<path
   fill="#478484"
   opacity="1.000000"
   stroke="none"
   d=" M473.205505,355.903503   C473.636475,355.215515 474.446259,354.568207 475.568817,353.866974   C475.115845,354.523438 474.350067,355.233795 473.205505,355.903503  z"
   id="path64" />
<path
   fill="#478484"
   opacity="1.000000"
   stroke="none"
   d=" M486.009491,344.765259   C485.957367,344.321259 486.214172,343.791687 486.737305,343.116272   C486.775208,343.540192 486.546814,344.109924 486.009491,344.765259  z"
   id="path65" />
<path
   fill="#478484"
   opacity="1.000000"
   stroke="none"
   d=" M492.080658,334.779724   C491.967133,334.310059 492.167908,333.690247 492.635742,332.873291   C492.733490,333.327271 492.564240,333.978394 492.080658,334.779724  z"
   id="path66" />
<path
   fill="#478484"
   opacity="1.000000"
   stroke="none"
   d=" M488.011444,341.820984   C487.957886,341.389282 488.207428,340.832458 488.705933,340.096191   C488.741394,340.509766 488.527985,341.102844 488.011444,341.820984  z"
   id="path67" />
<path
   fill="#478484"
   opacity="1.000000"
   stroke="none"
   d=" M471.190674,356.910767   C471.348145,356.554077 471.833160,356.202911 472.627808,355.821533   C472.464417,356.166321 471.991333,356.541321 471.190674,356.910767  z"
   id="path68" />
<path
   fill="#478484"
   opacity="1.000000"
   stroke="none"
   d=" M469.182495,357.906128   C469.350739,357.552399 469.844421,357.208191 470.650269,356.849426   C470.477570,357.195160 469.992737,357.555389 469.182495,357.906128  z"
   id="path69" />
<path
   fill="#478484"
   opacity="1.000000"
   stroke="none"
   d=" M476.105804,353.850220   C476.049225,353.642365 476.247894,353.350983 476.713593,352.989258   C476.774078,353.201538 476.567566,353.484131 476.105804,353.850220  z"
   id="path70" />



<path
   fill="#379B9B"
   opacity="1.000000"
   stroke="none"
   d=" M452.375122,261.874725   C452.827087,258.573639 453.577667,255.061996 454.566711,251.277191   C454.094696,254.557419 453.384216,258.110779 452.375122,261.874725  z"
   id="path74" />
<path
   fill="#379B9B"
   opacity="1.000000"
   stroke="none"
   d=" M454.671265,247.717270   C453.778229,246.154953 452.961853,244.239685 452.215759,241.928772   C453.106659,243.476852 453.927307,245.420578 454.671265,247.717270  z"
   id="path75" />
<path
   fill="#379B9B"
   opacity="1.000000"
   stroke="none"
   d=" M416.271820,287.793518   C416.862762,286.112274 417.728851,284.240692 418.954529,282.304626   C418.391724,284.027832 417.469360,285.815491 416.271820,287.793518  z"
   id="path76" />
<path
   fill="#379B9B"
   opacity="1.000000"
   stroke="none"
   d=" M444.353027,271.010315   C445.249329,269.790649 446.470184,268.538635 448.039856,267.425171   C447.151611,268.701843 445.914581,269.839905 444.353027,271.010315  z"
   id="path77" />
<path
   fill="#379B9B"
   opacity="1.000000"
   stroke="none"
   d=" M467.363525,304.588135   C466.652283,303.758209 465.955292,302.571564 465.369354,301.030182   C466.112885,301.860748 466.745300,303.046051 467.363525,304.588135  z"
   id="path78" />
<path
   fill="#379B9B"
   opacity="1.000000"
   stroke="none"
   d=" M468.652161,309.729889   C468.106415,308.776215 467.629791,307.478912 467.267700,305.790375   C467.828552,306.728180 468.274933,308.057220 468.652161,309.729889  z"
   id="path79" />
<path
   fill="#379B9B"
   opacity="1.000000"
   stroke="none"
   d=" M467.522888,319.237427   C467.475525,318.068268 467.676788,316.644989 468.209534,315.075562   C468.284546,316.280701 468.028015,317.631989 467.522888,319.237427  z"
   id="path80" />
<path
   fill="#379B9B"
   opacity="1.000000"
   stroke="none"
   d=" M451.128967,239.556702   C450.426086,239.170166 449.695129,238.467606 448.971283,237.409164   C449.685883,237.782425 450.393372,238.511551 451.128967,239.556702  z"
   id="path81" />
<path
   fill="#379B9B"
   opacity="1.000000"
   stroke="none"
   d=" M449.600067,266.168030   C449.653412,265.557739 449.986816,264.831421 450.655579,264.045013   C450.620667,264.673950 450.250397,265.363007 449.600067,266.168030  z"
   id="path82" />
<path
   fill="#379B9B"
   opacity="1.000000"
   stroke="none"
   d=" M421.385071,278.984589   C421.320526,278.553101 421.511078,277.975861 422.016785,277.326965   C422.101349,277.783142 421.870758,278.311005 421.385071,278.984589  z"
   id="path83" />
<path
   fill="#379B9B"
   opacity="1.000000"
   stroke="none"
   d=" M422.577789,277.110168   C422.491089,276.655792 422.645416,276.063416 423.134033,275.464661   C423.251831,275.962952 423.035339,276.467529 422.577789,277.110168  z"
   id="path84" />
<path
   fill="#379B9B"
   opacity="1.000000"
   stroke="none"
   d=" M420.297424,280.895081   C420.224823,280.483398 420.412750,279.919952 420.879059,279.219604   C420.957611,279.636230 420.757782,280.189789 420.297424,280.895081  z"
   id="path85" />
<path
   fill="#3C9498"
   opacity="1.000000"
   stroke="none"
   d=" M478.664307,273.094727   C478.722382,273.527740 478.514038,274.152893 478.004822,274.951477   C477.935242,274.512207 478.166565,273.899536 478.664307,273.094727  z"
   id="path86" />
<path
   fill="#379B9B"
   opacity="1.000000"
   stroke="none"
   d=" M465.325439,300.320648   C464.950195,300.240875 464.501434,299.888306 464.060486,299.211060   C464.462830,299.273560 464.857391,299.660706 465.325439,300.320648  z"
   id="path87" />
<path
   fill="#379B9B"
   opacity="1.000000"
   stroke="none"
   d=" M451.939362,240.744019   C451.695953,240.794632 451.434906,240.581573 451.150330,240.108582   C451.391785,240.059219 451.656738,240.269791 451.939362,240.744019  z"
   id="path88" />
<path
   fill="#379B9B"
   opacity="1.000000"
   stroke="none"
   d=" M448.773621,267.251160   C448.631165,267.032501 448.694611,266.700806 449.034973,266.326050   C449.331329,266.618683 449.220551,266.903717 448.773621,267.251160  z"
   id="path89" />
<path
   fill="#379B9B"
   opacity="1.000000"
   stroke="none"
   d=" M414.417664,290.110474   C414.336456,289.887604 414.511322,289.588287 414.948914,289.225769   C415.032379,289.453064 414.853058,289.743561 414.417664,290.110474  z"
   id="path90" />
<path
   fill="#379B9B"
   opacity="1.000000"
   stroke="none"
   d=" M415.425964,289.088562   C415.297119,288.882111 415.411346,288.565308 415.756775,288.125092   C415.881683,288.327179 415.775360,288.652679 415.425964,289.088562  z"
   id="path91" />
<path
   fill="#379B9B"
   opacity="1.000000"
   stroke="none"
   d=" M419.522400,282.134216   C419.381866,281.927338 419.473938,281.596954 419.807800,281.145935   C419.951416,281.353760 419.853210,281.682251 419.522400,282.134216  z"
   id="path92" />
<path
   fill="#379B9B"
   opacity="1.000000"
   stroke="none"
   d=" M451.507263,263.316681   C451.361237,263.101410 451.461212,262.721985 451.829407,262.196045   C451.982849,262.417175 451.868042,262.784851 451.507263,263.316681  z"
   id="path93" />

</svg>
