<?xml version="1.0" encoding="UTF-8" standalone="no"?>
<svg
   version="1.0"
   width="1365.333"
   height="1365.3334"
   viewBox="0 0 1023.9998 1024"
   preserveAspectRatio="xMidYMid"
   id="svg70"
   sodipodi:docname="shipgmt.svg"
   inkscape:export-filename="..\Desktop\WhatsApp-Image-2025-06-16-at-1.00.23-PM.png"
   inkscape:export-xdpi="96"
   inkscape:export-ydpi="96"
   inkscape:version="1.4.2 (f4327f4, 2025-05-13)"
   xmlns:inkscape="http://www.inkscape.org/namespaces/inkscape"
   xmlns:sodipodi="http://sodipodi.sourceforge.net/DTD/sodipodi-0.dtd"
   xmlns="http://www.w3.org/2000/svg"
   xmlns:svg="http://www.w3.org/2000/svg">
  <defs
     id="defs70" />
  <sodipodi:namedview
     id="namedview70"
     pagecolor="#ffffff"
     bordercolor="#000000"
     borderopacity="0.25"
     inkscape:showpageshadow="2"
     inkscape:pageopacity="0.0"
     inkscape:pagecheckerboard="0"
     inkscape:deskcolor="#d1d1d1"
     inkscape:document-units="pt"
     showgrid="false"
     inkscape:export-bgcolor="#ffffff00"
     inkscape:zoom="0.35355339"
     inkscape:cx="535.98694"
     inkscape:cy="502.04581"
     inkscape:window-width="1366"
     inkscape:window-height="697"
     inkscape:window-x="-8"
     inkscape:window-y="-8"
     inkscape:window-maximized="1"
     inkscape:current-layer="svg70" />
  <rect
     style="fill:#ffffff;fill-opacity:1;stroke-width:0.75"
     id="rect73"
     width="1023.9998"
     height="1023.9998"
     x="-3.0517578e-05"
     y="0.00010681152" />
  <g
     transform="matrix(0.1,0,0,-0.1,-54.402544,1054.3944)"
     fill="#000000"
     stroke="none"
     id="g70">
    <path
       id="path20"
       d="m 5246.5463,5226.4514 c -5,0 -48.9981,-7 -97.9981,-15 -169,-30 -455.999,-109.0049 -738.999,-205.0049 -308,-105 -717.7114,-220.1226 -732.7929,-224.3881 0,0.4305 -71.2012,-23.6099 -71.2012,-23.6099 l -73.0078,-15.9961 c -387,-86 -730,-115.002 -975,-82.002 -67,9 -124.002,15.9961 -127.002,15.9961 -3,0 5.0137,-29.9873 19.0137,-66.9873 35,-91 78.9902,-142.0029 159.9902,-183.0029 l 67.002,-33.9991 c 84.1045,-42.6775 54.6498,-43.3596 184.9951,-15 198.7152,43.235 240.0078,66.9903 343.0078,39.9903 47,-12 79.6525,-25.1899 86.8799,-29.8535 7.2273,-4.6637 15.1392,-11.8601 21.709,-17.8565 6.8958,-6.294 20.3147,-19.634 26.2353,-26.25 7.034,-12.1637 13.6868,-13.041 14.8828,-27.3779 205.7743,72.3524 493.1686,162.8942 570.293,176.3379 170,29 311.999,5 528.999,-90 57,-25 107.0059,-45.9961 111.0059,-45.9961 3,0 20.998,36.998 37.998,82.998 40,105 114.9903,231.0039 204.9903,344.0039 79,99 289.0049,311.9961 385.0049,390.9961 33.0986,27.4248 56.321,49.5249 54.5214,51.8409 l -0.029,0.029 c -0.1091,0.083 -0.2832,0.1318 -0.498,0.1318 z M 3244.6469,4366.8518 c -3210.621457,5892.0922 -3210.621457,5892.0922 0,0 z"
       sodipodi:nodetypes="sccccccsccsscssccccscccccsscc"
       style="fill:#c53b4a;fill-opacity:1" />
  </g>
  <path
     d="m 310.59746,296.5944 c -27.8,1.6 -55.9,11.9 -79.2,28.9 -9.7,7.1 -26.3,23.7 -32.8,32.7 -19.5,27.1 -29.1,57 -29,90.2 0.1,30.4 8.4,59 24.3,83.9 l 3.5,5.5 5.1,-10.7 5.1,-10.7 -3.8,-7.7 c -10,-20.2 -14.2,-37.8 -14.2,-59.8 0,-42.8 18.4,-80.5 51.5,-105.6 24.3,-18.5 54.8,-28 85.5,-26.6 34.8,1.5 64.2,14.7 88.2,39.5 24.8,25.6 37,55.8 37.1,91.7 0,22.9 -4,41.1 -13.2,59.9 l -3.8,7.9 7.5,-0.7 c 4.1,-0.3 9.2,-0.6 11.4,-0.6 3.7,0 4,-0.2 5.9,-4.8 14.3,-33.1 16.1,-75.2 4.7,-109.7 -10.8,-32.6 -32.4,-60.5 -62.3,-80.3 -6.7,-4.5 -25.5,-13.5 -33.5,-16.1 -18.2,-5.9 -37.1,-8.1 -58,-6.9 z m -19.31625,4.13483 c -0.3,0.3 1.81625,0.66517 1.11625,0.36517 -0.8,-0.3 -0.5,-0.6 0.6,-0.6 1.1,-0.1 -1.31625,-0.0652 -1.71625,0.23483 z m 59.61625,0.36517 c -0.7,0.2 -1.9,0.2 -2.5,0 -0.7,-0.3 -0.15646,0.24253 1.24354,0.24253 1.4,0 1.85646,-0.54253 1.25646,-0.24253 z m -73.95165,4.48986 c 1.8893,0.0343 1.95165,-1.08986 1.05165,-0.78986 -0.8,0.3 -1.2,0.2 -0.9,-0.4 0.6,-1 -0.95152,1.17535 -0.15165,1.18986 z m 97.15165,1.81014 c 1.3,0.5 -2.47804,-1.15503 -3.37804,-1.15503 -0.8,0 -0.54384,0.16348 -1.64384,-0.33652 -1.3,-0.5 0.62188,0.59155 1.52188,0.59155 0.8,0 2.4,0.4 3.5,0.9 z m 11.28206,5.14272 c -0.3,0.3 1.61794,1.65728 0.91794,0.95728 -0.9,-1 -0.8,-1.1 0.6,-0.5 1,0.3 -1.21794,-0.75728 -1.51794,-0.45728 z m -134.46404,2.8185 c -0.3,0.5 1.98198,0.0388 1.38198,0.0388 -0.7,0 -0.6,-0.4 0.3,-1 1.9,-1.2 -0.88198,-0.23878 -1.68198,0.96122 z m 142.39775,1.21464 c -0.3,0.3 1.68423,1.62414 0.98423,0.92414 -0.9,-1 -0.8,-1.1 0.6,-0.5 1,0.3 -1.28423,-0.72414 -1.58423,-0.42414 z m -158.36179,7.8848 c -1.4,1.1 0.74602,0.93934 0.14602,0.93934 -0.5,0 0.4,-0.9 2,-2 3.8,-2.5 1.15398,-1.43934 -2.14602,1.06066 z m -6.87586,5.30957 c -0.3,0.5 0.29211,0.37024 -0.20789,0.37024 -0.6,0 -0.0702,0.75953 0.22977,0.25953 0.3,-0.6 1.1,-1 1.6,-1 0.6,0 -1.32188,-0.22977 -1.62188,0.37023 z m 179.08438,-1.58273 c 0,0.3 10.1375,5.4125 8.4375,4.2125 -1.6,-1.2 -3,-2.4 -3,-2.6 0,-0.3 -0.61562,0.2125 0.98438,1.4125 1.7,1.2 -6.42188,-3.225 -6.42188,-3.025 z m 15.5375,9.9125 c 1.3,1.6 1.66404,1.36854 0.16404,0.0685 -1,-0.7 0.73596,-0.41854 0.73596,-0.61854 0,-0.8 -2.2,-1.05 -0.9,0.55 z m 13.58431,14.95511 c -0.3,0.3 2.21569,3.64489 1.91569,2.64489 -0.6,-1.4 -0.5,-1.5 0.5,-0.6 0.7,0.7 -2.11569,-2.34489 -2.41569,-2.04489 z m -215.68431,6.84489 c 0,0.1 -2.56875,-2.76875 -3.26875,-2.16875 -1,0.8 0.66875,4.06875 0.66875,2.76875 0,-1.1 0.6,-1.7 1.3,-1.4 0.7,0.3 1.3,0.6 1.3,0.8 z m 199.16637,-2.39542 c 0,1 2.63363,4.49542 1.63363,2.49542 -0.6,-1.4 -0.1,-1.1 1.6,0.8 1.4,1.6 -3.23363,-3.59542 -3.23363,-3.29542 z m -220.16637,3.59542 c 0,0.5 0.5,-2.88125 -0.6,-1.48125 l -3.6,7.28125 1.8,-3.3 c 1.8,-3.2 2.4,-3.8 2.4,-2.5 z m 11.3,6.8 c -0.3,0.9 -0.8,1.4 -1,1.1 -0.3,-0.3 1.76875,-0.15 2.16875,-0.75 0.9,-1.6 -0.46875,-2.05 -1.16875,-0.35 z m 0.4125,0.53125 c -0.9,1.4 -0.1125,2.96875 -0.4125,2.96875 -0.5,0 0.5,-1.8 2,-3.8 1.7,-2.2 0.1125,-1.76875 -1.5875,0.83125 z m -28.3625,19.35625 c -1.2,2 -0.65,2.7125 0.25,0.1125 0.4,-0.9 0.9,-1.4 1.1,-1.1 0.3,0.2 -0.75,-0.0125 -1.35,0.9875 z m 260.93769,11.5384 c 0,0.5 3.21231,4.8741 2.71231,4.0741 -0.5,-0.8 -1.45803,-2.70052 -1,-2.5 2.71794,1.18986 1.09662,-1.16179 1.59662,-0.36179 0.5,0.8 -3.30893,-1.81231 -3.30893,-1.21231 z m 8.55052,31.55616 c -0.3,0.7 0.36179,2.91794 0.36179,1.51794 0,-1.4 0.2,-1.9 0.5,-1.3 0.2,0.7 -0.66179,-0.81794 -0.86179,-0.21794 z m 1.53596,-0.53596 c -0.3,0.8 0.72583,2.7539 0.72583,1.6539 -0.1,-1.1 0.2,-1.7 0.5,-1.3 0.3,0.3 -0.92583,-1.0539 -1.22583,-0.3539 z m 13.87305,6.19324 c -0.3,0.8 1.85278,1.56066 1.85278,0.46066 -0.1,-1.1 0.2,-1.7 0.5,-1.3 0.3,0.3 -2.05278,0.13934 -2.35278,0.83934 z m 0,18.80113 c -0.3,0.8 1.85278,1.75953 1.85278,0.65953 -0.1,-1.1 0.2,-1.7 0.5,-1.3 0.3,0.3 -2.05278,-0.0595 -2.35278,0.64047 z m -279.54722,4.75953 c -0.3,1 0.25,0.30625 0.25,-1.29375 0,-1.7 -0.55,-2.30625 -0.25,-1.70625 0.2,0.7 0.2,2.1 0,3 z m 256.30625,36.59375 c -1.2,2 -1.30625,5.80625 -0.40625,3.20625 0.4,-0.9 0.9,-1.4 1.1,-1.1 0.3,0.2 -0.0937,-3.10625 -0.69375,-2.10625 z m 16.29375,4.70625 c -0.3,1.2 2.10625,-2.31875 1.80625,-2.61875 -0.5,-0.6 -2.40625,0.61875 -1.70625,0.61875 0.2,0 0.2,0.9 -0.1,2 z m -21.3,12 c 0,0.5 2.3125,-5.9375 1.7125,-5.9375 -0.5,0 -3.5125,6.4375 -3.2125,5.9375 0.3,-0.6 0.8,-1 1.1,-1 0.2,0 0.4,0.4 0.4,1 z m 9.7,-0.4 c -0.3,0.3 -1.2,0.4 -1.9,0.1 -0.8,-0.3 3.0625,0.24375 4.1625,0.24375 1.1,-0.1 -1.8625,-0.64375 -2.2625,-0.34375 z m -258.2375,11.56875 c 0.9,1.8 2.3375,2.83125 2.1375,2.83125 -0.6,0 -3.6,-5.5 -3.6,-6.6 0,-1.1 -0.4375,0.16875 1.4625,3.76875 z m 6.8375,3.33125 c -0.3,0.9 1.45,-2.25625 1.25,-2.55625 -0.3,-0.3 -2.45,2.75625 -2.05,2.15625 0.9,-1.6 1.5,-1.3 0.8,0.4 z"
     id="path1"
     style="fill:#c53b4a;fill-opacity:1;stroke-width:0.1"
     sodipodi:nodetypes="cccccccccscccccccscccccccccccscsccscscscsccscsccsccscscccscscscscsscsssccsscssssccsscccscccccsccsccsssssscscccccccccccccccsccsccsccscsscsscccccssccccc" />
  <path
     d="m 314.99746,325.5944 c -0.3,0.4 -0.1,5 0.2,10.2 l 0.7,9.6 h 3.8 3.9 v -10.3 -10.2 h -4.1 c -2.2,0 -4.3,0.3 -4.5,0.7 z"
     id="path2"
     style="stroke-width:0.1" />
  <path
     d="m 259.09746,340.0944 c -1.6,0.8 -3.1,1.7 -3.3,1.8 -0.3,0.2 8.2,16.8 9.4,18.3 0.2,0.3 6.3,-2.5 7.2,-3.3 0.5,-0.4 -9.2,-18.5 -9.8,-18.4 -0.3,0 -1.8,0.7 -3.5,1.6 z"
     id="path3"
     style="stroke-width:0.1" />
  <path
     d="m 373.89746,348.0944 -5.2,8.8 2.7,2.2 c 1.5,1.2 3,2.2 3.4,2.3 0.7,0 3.7,-4.5 9.6,-14.1 l 2.2,-3.7 -3.5,-2.1 c -2,-1.2 -3.7,-2.1 -3.8,-2.1 -0.1,0 -2.6,3.9 -5.4,8.7 z m 1.8,-0.98536 c -1,0.9 -1.1,3.38536 -0.5,1.98536 0.3,-1 0.9,-1.5 1.2,-1.2 0.3,0.3 0,-1.48536 -0.7,-0.78536 z m -3.46404,6.19887 c -1,0.9 -0.63596,3.18649 -0.036,1.78649 0.3,-1 0.9,-1.5 1.2,-1.2 0.3,0.3 -0.46404,-1.28649 -1.16404,-0.58649 z m 3.36404,5.08649 c 0,0.5 0.36179,-1.98311 -0.23821,-1.98311 -0.5,0 -1.56179,2.48311 -1.26179,1.98311 0.3,-0.6 0.8,-1 1.1,-1 0.2,0 0.4,0.4 0.4,1 z"
     id="path4"
     sodipodi:nodetypes="ccccccsscccscccscsscss"
     style="stroke-width:0.1" />
  <path
     d="m 291.29746,358.5944 c 0.4,1.8 0.8,8.9 0.7,15.8 0,12.2 -0.7,15.7 -4.9,25.2 -0.5,1.4 -0.2,1.8 1.3,1.8 3.4,0 19.4,5 25.7,8 3.3,1.6 8.8,4.7 12.2,6.9 l 6.3,4 0.6,-2.5 c 1,-4 -0.4,-14.9 -2.8,-21.2 -2.8,-7.6 -8.8,-16.3 -16.4,-23.8 -5.9,-5.8 -16.1,-13.6 -21.2,-16.3 -2.4,-1.3 -2.4,-1.2 -1.5,2.1 z"
     id="path5"
     style="display:inline;fill:#305782;fill-opacity:1;stroke-width:0.1" />
  <path
     d="m 408.09746,369.8944 c -2.7,2.4 -15.1,13 -27.5,23.5 -32.5,27.5 -37,31.4 -37,32 0,1.2 9,9.3 9.6,8.7 0.4,-0.4 0.1,-1.5 -0.7,-2.4 -1.2,-1.6 -0.86855,1.08423 0.53145,2.28423 1.9,1.4 0.96855,-0.78423 53.86855,-59.88423 8.6,-9.5 9,-11.1 1.2,-4.2 z m -12,13.5 c -0.3,0.5 -1.6,1.5 -2.8,2.1 -1.9,0.9 -0.97192,1.39662 1.22808,-0.40338 2.8,-2.3 2.47192,-3.19662 1.57192,-1.69662 z m -3.5,5.5 c 0,0.2 -1.06404,-1.22357 -1.76404,-0.92357 -0.8,0.3 1.6494,0.96066 1.6494,0.26066 0,-0.7 -1.98536,-0.43709 -1.18536,-0.13709 0.7,0.3 1.3,0.6 1.3,0.8 z m -10.59662,9.53483 c 0,0.2 -0.40338,1.46517 -1.60338,2.56517 l -2.3,1.9 2.76179,-1.90225 c 1.8,-2.1 1.14159,-3.36292 1.14159,-2.56292 z m -7.40338,3.36517 c 0,0.3 -0.4,0.8 -1,1.1 -0.5,0.3 2.38085,-0.36404 2.38085,-0.86404 0,-0.6 -2.88085,-0.63596 -2.38085,-0.63596 0.6,0 1,0.2 1,0.4 z m -1.5,7.5 c -0.3,0.6 1.35278,-2.41344 0.75278,-2.41344 -0.6,0 -3.05278,2.91344 -2.25278,2.01344 1.4,-1.7 2.6,-1.3 1.5,0.4 z m -11.07192,1.97868 c -0.3,0.5 0.78874,-0.72358 0.18874,-0.72358 -0.7,0 -3.51682,3.4449 -2.61682,2.8449 1.9,-1.2 3.22808,-3.32132 2.42808,-2.12132 z m 2.67192,7.42132 -2.4,2.2 3.62357,-2.7 c 1,-1.4 0.57643,-2.2 0.57643,-2.2 -0.13144,0.40339 -0.6,1.5 -1.8,2.7 z"
     id="path6"
     sodipodi:nodetypes="ccssccccsccsscscsscccsscssscscccscccccsc"
     style="fill:#305782;fill-opacity:1;stroke-width:0.1" />
  <path
     d="m 424.09746,384.4944 c -1.1,0.6 -5,2.9 -8.7,5 l -6.7,4 1.6,3.4 c 0.9,1.9 2,3.5 2.5,3.5 0.6,0 15,-7.9 17.7,-9.6 0.3,-0.3 -3.8,-7.4 -4.2,-7.4 -0.1,0 -1.1,0.5 -2.2,1.1 z m -0.11118,4.56517 c 0.6,1.5 2.21118,1.33483 0.91118,-0.16517 -0.4,-0.4 -0.2,-0.5 0.5,-0.1 0.6,0.4 1.2,0.2 1.2,-0.3 0,-1.5 -3.21118,-1.13483 -2.61118,0.56517 z m -5.66742,4.6 c -0.3,0.5 2.6786,0.73483 2.1786,0.73483 -0.6,0 -0.7,-0.5 -0.4,-1 0.3,-0.6 1.43146,-2.06066 1.93146,-2.06066 0.6,0 -3.41006,1.72583 -3.71006,2.32583 z"
     id="path7"
     sodipodi:nodetypes="scccscsscccsccscsc"
     style="stroke-width:0.1" />
  <path
     d="m 211.09746,388.8944 c -1.1,1.9 -1.7,3.6 -1.5,3.8 0.3,0.2 4.3,2.5 9,5.1 7.9,4.4 8.5,4.6 9.8,2.9 3.3,-4.4 3.3,-5.1 -0.1,-7.1 -5.8,-3.4 -14.4,-8.2 -14.9,-8.2 -0.3,0 -1.3,1.6 -2.3,3.5 z"
     id="path8"
     style="stroke-width:0.1" />
  <path
     d="m 251.79746,407.5944 c -0.4,13.8 -7,34.9 -15.8,50 -2.4,4.2 -4.4,7.9 -4.4,8.2 0,0.7 5.5,2.1 21.5,5.7 12.3,2.8 13,2.9 14.3,1.2 2.3,-3.2 4.4,-11.7 4.9,-20.3 0.6,-10 -1,-17.5 -6.3,-29 -2.8,-6 -13,-23 -13.8,-23 -0.2,0 -0.3,3.3 -0.4,7.2 z"
     id="path12"
     style="display:inline;fill:#305782;fill-opacity:1;stroke-width:0.1" />
  <path
     d="m 279.59746,408.3944 c 3.5,6.8 5,14.8 5,26.1 0,13.4 -2.2,24.4 -7.4,37 -0.6,1.4 0.3,1.6 7.1,1.8 16.3,0.4 43.5,6.1 55,11.5 l 7.2,3.4 1.8,-5.1 c 2.8,-8.1 2.5,-30.2 -0.5,-37.8 -4.4,-11.1 -11,-16.4 -35.1,-28.6 -14.4,-7.2 -27.8,-12.3 -32.7,-12.3 h -2.4 z"
     id="path13"
     style="display:inline;fill:#305782;fill-opacity:1;stroke-width:0.1" />
  <path
     d="m 357.49746,453.5944 c 6.7,16.4 10.1,34.3 10.1,53.3 0,8.8 -2,26.1 -3.9,34 -0.6,2.2 -0.8,4.1 -0.7,4.3 0.2,0.1 3.5,-2.1 7.4,-5 13.9,-10.5 37.3,-16.5 50,-12.9 1.7,0.5 3.2,0.8 3.2,0.5 0,-0.3 -1.2,-2.8 -2.6,-5.7 -7.9,-15.6 -24.3,-36.7 -43.9,-56.3 -8.2,-8.3 -16.9,-16.5 -19.2,-18.3 l -4.2,-3.1 z"
     id="path16"
     style="display:inline;fill:#305782;fill-opacity:1;stroke-width:0.1" />
  <path
     d="m 197.59746,450.3944 v 4 h 8.5 c 4.7,0 8.8,0.1 9.3,0.2 0.4,0.2 0.8,-1.6 1,-4 l 0.3,-4.2 h -9.5 -9.6 z m 3.7,1.6 c -0.3,0.3 -1.2,0.4 -1.9,0.1 -0.8,-0.3 -0.40625,0.61875 0.69375,0.61875 1.1,-0.1 1.60625,-1.01875 1.20625,-0.71875 z"
     id="path17"
     sodipodi:nodetypes="ccscccccccccc"
     style="stroke-width:0.1" />
  <path
     d="m 425.59746,450.3944 v 4 h 10 10 v -4 -4 h -10 -10 z"
     id="path18"
     style="stroke-width:0.1" />
  <path
     d="m 227.79746,478.5944 c 1.4,5.9 0.3,19.9 -2.2,28.3 -4,14.1 -16.4,36.1 -26.7,47.5 l -4.3,4.7 3.8,0.7 c 6.1,1 22.7,0.6 39.5,-0.9 13.1,-1.1 16.1,-1.7 17.3,-3.2 2.5,-3.3 9.6,-22.7 12.5,-34.2 3.2,-12.6 3.8,-23.1 1.5,-28.6 -1.1,-2.5 -2.9,-4.2 -6.8,-6.2 -10.9,-5.7 -28.8,-12.3 -33.3,-12.3 -2.2,0 -2.2,0.2 -1.3,4.2 z"
     id="path19"
     style="display:inline;fill:#305782;fill-opacity:1;stroke-width:0.1" />
  <path
     d="m 237.09746,569.8944 c -5.5,0.7 -12.8,1.4 -16.2,1.4 l -6.3,0.1 -2.5,4.9 c -1.3,2.7 -2.9,5.2 -3.5,5.6 -4.8,3 8.9,3.1 32.3,0.3 6.7,-0.7 9.7,-1.5 9.7,-2.4 0,-2.7 -2.2,-11.4 -2.8,-11.3 -0.4,0.1 -5.2,0.7 -10.7,1.4 z"
     id="path24"
     style="display:inline;fill:#305782;fill-opacity:1;stroke-width:0.1" />
  <path
     d="m 331.09746,614.9944 c -15,2.1 -28,6 -51.5,15.4 -45.1,18 -52,19.9 -72,20 l -12.5,0.1 8,2.4 c 12.1,3.7 21.6,4.8 37.5,4.8 19.2,-0.1 24.3,-1.3 61.5,-14.8 17.8,-6.4 27.7,-8.5 39.5,-8.5 5.8,0.1 12.3,0.5 14.5,1 25.4,5.6 23.2,5.3 36.2,4.1 15.5,-1.4 27.8,-5.2 39.1,-12.1 4.5,-2.8 8.2,-5.3 8.2,-5.5 0,-0.2 -1.7,0.2 -3.7,0.9 -16.5,5.8 -36.6,4.5 -65.7,-4.2 -10.6,-3.1 -13.6,-3.6 -24.1,-3.8 -6.6,-0.1 -13.3,0 -15,0.2 z m 30.21875,3.4625 c 2.5,1.1 4.81383,0.71167 1.41383,-0.38833 -2,-0.6 -0.82633,0.71333 0.77367,0.71333 1.1,0 -3.2875,-0.825 -2.1875,-0.325 z m 64.375,8.46875 c -0.8,0.5 1.00625,1.46875 0.40625,1.46875 -0.5,0 -0.3,-0.5 0.5,-1 0.8,-0.5 2,-1 2.5,-1 0.6,0 -2.60625,0.0312 -3.40625,0.53125 z m -13.09375,6.86875 c 0,0.2 -0.1375,-2.01875 -1.0375,-1.71875 -0.8,0.3 -1.7625,2.91875 -1.4625,2.31875 0.6,-1 2.5,-1.4 2.5,-0.6 z m -143.94433,3.19662 c -0.8,0.5 1.74433,0.30338 0.94433,0.30338 -1,0 -0.8,-0.3 0.5,-0.9 2.7,-1.2 0.35567,-0.60338 -1.44433,0.59662 z m 32.44433,4.40338 c -2.7,1.2 -4.06798,1.23315 -2.26798,0.0331 0.8,-0.5 -2.07579,1.1716 -1.27579,1.1716 1,0 4.84377,-1.80475 3.54377,-1.20475 z m -7.28592,1.25197 c -0.3,0.3 1.28592,0.74803 0.58592,0.44803 -0.8,-0.3 -0.5,-0.6 0.6,-0.6 1.1,-0.1 -0.78592,-0.14803 -1.18592,0.15197 z"
     id="path25"
     style="fill:#305782;fill-opacity:1;stroke-width:0.1"
     sodipodi:nodetypes="cccccccccccsccccccscssssssccscsccccsccccc" />
  <path
     d="m 328.59746,645.8944 c -4.1,1.3 -12,4 -17.5,6 -5.5,2 -12.7,4.2 -16,4.9 l -6,1.3 10.9,0.8 c 14.1,1 24.6,-0.5 40.6,-5.7 8.9,-2.9 15,-4.2 21,-4.6 l 8.5,-0.6 -9,-2.2 c -12.1,-3.1 -22.6,-3 -32.5,0.1 z"
     id="path26"
     style="fill:#305782;fill-opacity:1;stroke-width:0.1" />
  <path
     d="m 324.8318,684.4944 c -0.8,2.2 0.9,4.8 3.5,5.2 1.6,0.2 2.3,-0.3 2.8,-2.2 0.3,-1.4 0.3,-3 -0.1,-3.5 -1,-1.7 -5.5,-1.3 -6.2,0.5 z"
     id="path27"
     style="stroke-width:0.1" />
  <path
     d="m 418.8318,684.4944 c -0.8,2.2 1,4.9 3.2,4.9 1,0 2.2,-0.7 2.8,-1.6 1.5,-2.4 0.1,-4.9 -2.8,-4.9 -1.5,0 -2.8,0.7 -3.2,1.6 z"
     id="path28"
     style="stroke-width:0.1" />
  <path
     d="m 621.5318,701.8944 v 19 h 3 3 v -19 -19 h -3 -3 z"
     id="path29"
     style="stroke-width:0.1" />
  <path
     d="m 635.5318,701.8944 v 19 h 3 3 v -19 -19 h -3 -3 z"
     id="path30"
     style="stroke-width:0.1" />
  <path
     d="m 231.5318,702.8944 v 18 h 2.5 2.4 l 0.3,-13.1 0.3,-13.2 9.4,13.2 c 8.3,11.5 9.7,13.1 12.3,13.1 h 2.8 v -18 -18 h -2.5 -2.4 l -0.3,13 -0.3,13 -9.3,-13 c -8.3,-11.6 -9.7,-13 -12.3,-13 h -2.9 z"
     id="path31"
     style="stroke-width:0.1" />
  <path
     d="m 508.5318,702.8944 v 18 h 11.5 11.5 v -2.5 c 0,-2.5 -0.1,-2.5 -8.5,-2.5 h -8.5 v -5.5 -5.5 h 6.5 c 6.3,0 6.5,-0.1 6.5,-2.5 0,-2.4 -0.2,-2.5 -6.5,-2.5 h -6.5 v -5.3 -5.2 l 8,0.3 8,0.4 v -2.6 -2.6 h -11 -11 z"
     id="path32"
     style="stroke-width:0.1" />
  <path
     d="m 400.5318,691.3944 c 0,3 -0.3,3.5 -2.4,3.5 -3.2,0 -3.1,4.4 0.2,4.8 2,0.3 2.2,0.9 2.2,6.5 0,7 1.3,12.7 3.2,13.9 1.8,1.1 9.6,1 10.2,-0.1 1.2,-1.9 -0.7,-4 -3.7,-4.3 l -3.2,-0.3 -0.3,-7.8 -0.3,-7.7 h 3.6 c 3.1,0 3.5,-0.3 3.5,-2.5 0,-2.2 -0.4,-2.5 -3.5,-2.5 -3.3,0 -3.5,-0.2 -3.5,-3.5 0,-3.2 -0.2,-3.5 -3,-3.5 -2.8,0 -3,0.3 -3,3.5 z"
     id="path33"
     style="stroke-width:0.1" />
  <path
     d="m 272.8318,695.4944 c -3.5,1.8 -3.7,2.1 -2.4,4.3 0.8,1.2 1.4,1.2 3.9,0.2 4.4,-1.8 8.4,-1.1 9.9,1.8 0.6,1.4 1,2.9 0.7,3.3 -0.3,0.4 -3.2,0.8 -6.5,0.8 -5,0 -6.4,0.4 -8.4,2.5 -5.1,5 -1.4,12.6 6.1,12.7 2.3,0 5.1,-0.5 6.2,-1.1 1.5,-0.8 2.2,-0.8 2.2,-0.1 0,0.5 1.4,1 3,1 h 3 v -10 c 0,-5.4 -0.5,-11 -1.1,-12.3 -2.1,-4.7 -10.3,-6.2 -16.6,-3.1 z m 12,15 c 1.1,1.2 -1.3,4.5 -4.1,5.5 -5,1.9 -9.9,-1.4 -7.1,-4.7 1.2,-1.4 10,-2 11.2,-0.8 z"
     id="path34"
     style="stroke-width:0.1" />
  <path
     d="m 327.3318,694.5944 c -1.6,0.4 -1.8,1.9 -1.8,13.4 v 12.9 h 2.5 2.5 v -13.5 c 0,-7.4 -0.3,-13.4 -0.7,-13.4 -0.5,0.1 -1.6,0.3 -2.5,0.6 z"
     id="path35"
     style="stroke-width:0.1" />
  <path
     d="m 340.9318,697.2944 c -3.1,3.1 -3.4,3.9 -3.4,9.4 0,5.2 0.4,6.4 2.9,9.1 2.4,2.6 3.6,3.1 7.6,3.1 2.5,0 5.5,-0.5 6.6,-1 1.7,-1 1.9,-0.7 1.9,1.9 0,5.9 -9.4,7.9 -14.6,3 l -2.1,-2 -1.8,2.7 c -1.4,2.2 -1.5,2.8 -0.4,3.6 8.1,5.6 18.9,4.8 22.9,-1.7 1.7,-2.8 2,-4.9 2,-16.9 v -13.6 h -3.1 c -1.7,0 -2.8,0.4 -2.4,1 0.9,1.5 -0.7,1.2 -2.9,-0.5 -1.1,-0.8 -3.7,-1.5 -5.9,-1.5 -3.1,0 -4.6,0.7 -7.3,3.4 z m 13.4,3.2 c 1.7,1.2 2.2,2.5 2.2,5.9 0,3.4 -0.5,4.7 -2.2,5.9 -7.8,5.5 -16,-4.3 -9.3,-10.9 2.8,-2.9 6.1,-3.2 9.3,-0.9 z"
     id="path36"
     style="stroke-width:0.1" />
  <path
     d="m 373.8318,695.3944 c -3.4,1.4 -3.8,2.2 -2.7,4.9 0.5,1.4 0.9,1.4 3.4,0.1 5.5,-2.8 11,-1 11,3.6 0,1.7 -0.7,1.9 -5.9,1.9 -7.7,0 -11.1,2.4 -11.1,8 0,2.9 0.6,4.3 2.2,5.4 2.6,1.9 9,2.1 12.1,0.5 1.6,-0.9 2.2,-0.9 2.5,0 0.2,0.6 1.7,1.1 3.4,1.1 h 3 l -0.4,-11.1 c -0.3,-10.7 -0.4,-11.2 -3.1,-13.5 -3.3,-2.8 -9.3,-3.2 -14.4,-0.9 z m 11.5,16.7 c -0.6,4.4 -9.9,6.2 -11.5,2.3 -1,-2.8 1.7,-4.5 6.9,-4.5 4.5,0 4.9,0.2 4.6,2.2 z"
     id="path37"
     style="stroke-width:0.1" />
  <path
     d="m 419.5318,707.5944 v 13.3 h 2.5 2.5 v -13.4 -13.4 l -2.5,0.2 -2.5,0.1 z"
     id="path38"
     style="stroke-width:0.1" />
  <path
     d="m 441.1318,695.3944 c -3.3,1.8 -3.9,1.9 -3.1,0.5 0.4,-0.6 -0.7,-1 -2.4,-1 h -3.1 v 13 13 h 3 3 v -9.5 c 0,-8.9 0.1,-9.6 2.4,-11 3.2,-2.1 7.5,-1 8.7,2.2 0.5,1.3 0.9,6 0.9,10.4 0,7.8 0,7.9 2.5,7.9 h 2.5 v -11 c 0,-10.4 -0.1,-11.2 -2.5,-13.5 -2.8,-2.9 -7.5,-3.3 -11.9,-1 z"
     id="path39"
     style="stroke-width:0.1" />
  <path
     d="m 465.7318,696.6944 c -5.6,5.3 -5.1,16 1,20.5 3.4,2.5 10.1,2.6 12.8,0.2 2,-1.8 2,-1.7 2,1.3 0,2.1 -0.8,3.7 -2.6,5.1 -3.4,2.6 -5.9,2.6 -10.9,0 -3.7,-2 -3.9,-2 -5.2,-0.3 -1.9,2.6 -1.7,3.2 2.7,5.4 6.6,3.4 15.1,2.2 19.1,-2.6 1,-1.2 1.5,-5.7 1.9,-16.6 l 0.5,-14.8 h -2.7 c -1.6,0 -2.8,0.4 -2.8,0.9 0,0.6 -1.2,0.3 -2.7,-0.5 -4.6,-2.3 -9.7,-1.8 -13.1,1.4 z m 13.6,3.8 c 1.7,1.2 2.2,2.5 2.2,5.9 0,5 -2.4,7.5 -7.4,7.5 -4.2,0 -6.6,-2.6 -6.6,-7.2 0,-6.7 6.3,-10.1 11.8,-6.2 z"
     id="path40"
     style="stroke-width:0.1" />
  <path
     d="m 536.1318,694.6944 c -0.3,0.2 1.6,3 4,6.3 2.8,3.6 4.2,6.4 3.8,7.1 -0.4,0.7 -2.7,3.9 -5.1,7 l -4.4,5.8 h 3.4 c 3,0 3.9,-0.7 6.9,-5 l 3.6,-5.1 3.2,5.1 c 2.9,4.4 3.6,5 6.7,5 2.7,0 3.3,-0.3 2.6,-1.3 -0.6,-0.6 -2.9,-3.8 -5.2,-7 l -4.2,-5.7 4.7,-6.1 c 2.5,-3.3 4.5,-6.2 4.3,-6.3 -0.2,-0.2 -1.8,-0.1 -3.6,0.1 -2.3,0.4 -3.9,1.6 -5.8,4.5 l -2.6,3.9 -2.9,-3.9 c -2,-2.8 -3.8,-4.1 -5.9,-4.4 -1.7,-0.3 -3.3,-0.3 -3.5,0 z"
     id="path41"
     style="stroke-width:0.1" />
  <path
     d="m 568.4318,697.7944 c -3.5,3.5 -3.9,4.4 -3.9,9 0,6.4 2,10.6 6.2,12.7 7.3,3.8 20.8,-0.1 15.5,-4.4 -0.8,-0.7 -1.8,-0.7 -2.7,-0.2 -2.6,1.6 -7.6,1.1 -10.4,-1.1 -2.1,-1.6 -2.6,-2.9 -2.6,-6.4 0,-3.5 0.5,-4.8 2.6,-6.4 3,-2.3 6.5,-2.7 9.6,-1 1.8,0.9 2.4,0.8 3.5,-0.7 0.7,-1 1.3,-2.1 1.3,-2.5 0,-1.2 -6.1,-2.9 -10.8,-2.9 -3.8,0 -5,0.5 -8.3,3.9 z"
     id="path42"
     style="stroke-width:0.1" />
  <path
     d="m 598.0318,694.8944 c -4,1.6 -6.8,5.8 -7.3,10.8 -1.1,11.9 7.9,18.3 20.1,14.3 3.7,-1.3 4.4,-2.5 2.8,-5 -0.6,-1 -1.3,-1.1 -2.9,-0.2 -3.4,1.8 -9.9,1.4 -12.2,-0.9 -4,-4 -2.8,-4.9 7.3,-5.2 l 9.2,-0.3 -0.1,-4.4 c -0.1,-6.1 -4.5,-10.1 -10.7,-10 -2.3,0 -5.1,0.4 -6.2,0.9 z m 10.3,5.2 c 2.8,2.8 1.3,3.8 -5.3,3.8 -3.6,0 -6.5,-0.3 -6.5,-0.7 0,-0.3 0.7,-1.5 1.7,-2.5 1.9,-2.1 8.2,-2.5 10.1,-0.6 z"
     id="path43"
     style="stroke-width:0.1" />
  <path
     d="m 653.3318,695.4944 c -3.8,2 -6,6.8 -6,12.6 0,8.3 4.7,13 13.1,13 2.7,-0.1 6.4,-0.8 8.1,-1.7 2.6,-1.4 2.9,-1.8 1.9,-3.6 -0.7,-1.4 -1.6,-1.8 -2.7,-1.3 -0.9,0.4 -3.8,0.9 -6.3,1.2 -4.1,0.3 -4.9,0.1 -6.8,-2.3 -1.1,-1.5 -2.1,-3.2 -2.1,-3.6 0,-0.5 4.3,-0.9 9.5,-0.9 h 9.5 v -3.5 c 0,-7.3 -4.3,-11.5 -11.7,-11.5 -2.1,0.1 -5,0.7 -6.5,1.6 z m 11.6,5.6 c 1.5,2.5 0.5,2.9 -6.3,2.6 l -6.1,-0.3 1.6,-2.3 c 1.3,-1.9 2.3,-2.2 5.6,-2 2.5,0.2 4.5,1 5.2,2 z"
     id="path44"
     style="stroke-width:0.1" />
  <path
     d="m 680.3318,694.5944 c -1.6,0.4 -1.8,1.9 -1.8,13.4 v 12.9 h 2.5 c 2.5,0 2.5,-0.1 2.5,-8.8 0,-4.8 0.4,-9.2 0.8,-9.9 1.4,-2.2 5.7,-3.2 8.3,-1.9 2.3,1.1 2.4,1.7 2.7,10.9 l 0.3,9.7 h 3 3.1 l -0.4,-10.9 c -0.3,-10 -0.5,-11.2 -2.7,-13.5 -2.9,-3.1 -8.4,-3.5 -11.9,-1 -2,1.4 -2.5,1.4 -3.5,0.2 -0.7,-0.8 -2,-1.3 -2.9,-1.1 z"
     id="path45"
     style="stroke-width:0.1" />
  <path
     d="m 713.7318,695.3944 c -4.5,2 -7.6,9 -6.7,14.8 1.6,9.2 10.8,13.5 20.8,9.5 3.1,-1.2 3.2,-1.7 1.4,-4.2 -1.1,-1.5 -1.7,-1.6 -3.5,-0.7 -1.1,0.6 -3.3,1.1 -4.7,1.1 -3.5,0 -8.5,-5 -8.5,-8.5 0,-3.5 5,-8.5 8.5,-8.5 1.4,0 3.5,0.5 4.6,1.1 1.7,0.8 2.3,0.7 3.4,-0.8 1.2,-1.5 1.2,-2 0,-3.2 -2,-2.1 -11.3,-2.4 -15.3,-0.6 z"
     id="path46"
     style="stroke-width:0.1" />
  <path
     d="m 740.6318,695.1944 c -6.4,3.2 -8.7,11.7 -5.2,19 1.2,2.4 3.3,4.9 4.7,5.5 3.5,1.7 12,1.5 15.4,-0.3 2.6,-1.4 2.8,-1.8 1.7,-3.5 -0.7,-1.3 -1.7,-1.8 -2.7,-1.3 -0.8,0.3 -3.6,0.8 -6.1,1.1 -4.1,0.3 -4.9,0.1 -6.8,-2.3 -3.6,-4.6 -3,-5 7.4,-4.7 l 9.5,0.3 v -3.5 c 0,-4.8 -1.9,-8.5 -5.1,-10.2 -3.4,-1.7 -9.6,-1.8 -12.8,-0.1 z m 10.7,4.9 c 2.8,2.8 1.3,3.8 -5.3,3.8 -3.6,0 -6.5,-0.3 -6.5,-0.7 0,-0.3 0.7,-1.5 1.7,-2.5 1.9,-2.1 8.2,-2.5 10.1,-0.6 z"
     id="path47"
     style="stroke-width:0.1" />
  <path
     d="m 294.5318,695.2944 c 0,0.7 8.1,22 9.1,23.8 0.6,1.1 2.1,1.8 3.8,1.8 2.2,0 3.1,-0.6 3.9,-2.8 0.6,-1.5 2.9,-7.3 5.1,-13 l 4,-10.3 -3.1,0.3 c -2.9,0.3 -3.3,0.8 -6.4,9.1 -1.8,4.9 -3.5,9.1 -3.7,9.3 -0.2,0.3 -1.9,-3.8 -3.7,-9.1 -3.2,-9 -3.5,-9.5 -6.2,-9.5 -1.5,0 -2.8,0.2 -2.8,0.4 z"
     id="path48"
     style="stroke-width:0.1" />
  <path
     d="m 285.26868,482.41333 c -2.67187,-0.0328 -3.06621,0.28594 -2.61621,1.33594 2,4.7 4.40039,17.49932 4.40039,23.79932 0,18.9 -6.4001,42.70049 -16.1001,59.50049 -2.1,3.8 -3.89941,7.10078 -3.89941,7.30078 0,0.3 0.99873,-0.1002 2.19873,-0.7002 2.4,-1.3 35.00127,-12.0001 35.30127,-11.6001 0.2,0.1 0.59941,3.89981 0.89941,8.29981 l 0.41162,4.82373 7.52637,-2.41553 c 0.86475,-5.49286 3.13803,-14.64544 3.86133,-15.20801 2.8,-1.7 12.80078,-3.30029 20.80078,-3.30029 7.5,0 9.25504,0.0741 12.82471,-0.67529 l 3.66211,-2.26172 0.0381,-0.61377 c 8.04159,-13.23709 13.21111,-34.55694 6.77491,-50.14893 -0.59821,-1.44919 -1.65827,-1.43609 -2.09199,-1.45979 -0.50076,-0.0274 -0.81795,-0.13137 -9.20782,-3.04021 -16.6,-5.6 -49.30078,-12.8 -61.30078,-13.5 -1.45,-0.075 -2.59277,-0.12529 -3.4834,-0.13623 z"
     style="fill:#305782;fill-opacity:1;stroke-width:0.1"
     id="path1-1" />
  <path
     d="m 261.35511,617.05884 c -5.97171,0.34674 -13.15225,2.01533 -22.30225,5.09033 -17.3,6 -34.69961,8.6001 -57.09961,8.6001 -8.9,0 -17.8,-0.6 -22.5,-1.5 -8.5,-1.6 -20.30127,-5.20058 -21.80127,-6.60058 -0.6,-0.5 -1.49951,-0.89942 -1.99951,-0.89942 -1.6,0 7.10049,7.60049 13.00049,11.50049 11.6,7.6 21.49902,10.49873 38.49902,11.19873 25.1,1 53.2001,-4.2998 74.6001,-14.2998 3.42745,-1.59034 9.89319,-4.04505 17.69678,-6.81006 -3.72594,-3.56424 -5.67541,-4.5543 -7.11328,-5.0625 -1.43787,-0.5082 -4.19866,-0.98431 -5.38331,-1.12647 -1.75,-0.175 -3.60659,-0.2064 -5.59716,-0.0908 z M 146.27845,628.7732 c 0.3236,-0.005 0.97978,0.57578 1.87353,1.67578 0.63477,0.78125 0.93515,1.20703 0.90235,1.28467 v 10e-4 l -0.001,0.002 -10e-4,10e-4 -0.002,10e-4 -0.001,10e-4 0.11451,-0.0663 -1.02901,-1.27461 c -0.0743,0.0329 -0.62084,-1.0313 -1.34155,-1.65591 -1,-0.7 -0.73963,0.60553 -0.73963,0.40553 0,-0.25 0.0785,-0.37427 0.22559,-0.37646 z m 9.27392,5.97656 c 0.6,0 -0.83552,-0.51539 -0.0355,-0.0154 0.8,0.5 0.5793,-0.0139 -0.0207,-0.0139 -0.5,0 0.81098,0.55293 0.011,0.0529 -0.8,-0.5 -0.45476,-0.0236 0.0452,-0.0236 z m 37.00049,8.2998 c 3.12813,0 4.9939,0.10261 5.0918,0.23291 v 10e-4 h 0.002 v 0.003 l 0.001,10e-4 c 0,10e-4 -6e-5,0.003 0,0.003 v 10e-4 l -0.001,10e-4 v 10e-4 0.002 10e-4 l -0.002,10e-4 v 0.002 l -10e-4,10e-4 0.32662,-0.70162 c -0.0407,0.0462 -10.14111,0.68173 -10.63329,0.73095 -2.1,0.2 3.81611,0.31719 1.51611,0.11719 -0.68438,-0.057 -1.03686,-0.11607 -1.08692,-0.16846 l -0.001,-0.002 c -10e-4,-10e-4 -10e-4,-0.003 -0.002,-0.003 v -0.001 -0.002 l -0.001,-10e-4 c -7e-5,0 -2e-5,-0.004 0,-0.004 v -10e-4 -0.001 -0.002 l 12.35306,0.25631 c 0.0753,-0.12095 -2.5769,-1.1577 -5.52246,-0.75147 z"
     style="fill:#305782;fill-opacity:1;stroke-width:0.1"
     id="path1-7" />
  <g
     id="g15"
     transform="translate(367.37266,8.320212)">
    <g
       id="g72"
       transform="translate(1.288883,-37.96162)">
      <path
         d="m 151.27677,520.78283 c -4.2,0.7 -10.3,5.6 -13,10.3 -2.5,4.4 -2.5,4.9 -2.8,30.9 -0.4,29.9 0,32.8 5.8,39.4 5.7,6.4 7.8,6.7 45.9,6.7 35.4,0 36.6,-0.1 42.9,-5.5 5.3,-4.5 6.5,-9.1 7,-27.3 0.2,-8.9 0.1,-17.4 -0.2,-18.7 l -0.6,-2.5 h -23 -23 v 10 9.9 l 9.8,0.3 9.7,0.3 v 6.5 6.5 l -23.7,0.3 -23.8,0.2 -0.2,-20.2 -0.3,-20.3 -5.7,-3 c -3.2,-1.7 -5.8,-3.3 -5.8,-3.8 0,-0.4 19.3,-0.7 43,-0.7 h 43 l 0.5,-2.3 c 0.3,-1.2 0.5,-5.6 0.3,-9.7 l -0.3,-7.5 -41.5,-0.1 c -22.8,-0.1 -42.6,0.1 -44,0.3 z"
         id="path11-8"
         style="fill:#305782;fill-opacity:1;stroke:none;stroke-width:0.1" />
      <path
         d="m 253.27677,564.08283 v 44.1 l 12.8,-0.3 12.7,-0.3 0.3,-20 c 0.1,-11 0.6,-20.3 1,-20.7 0.4,-0.4 2.3,1.8 4.2,5 1.8,3.1 4.9,8.1 6.7,10.9 l 3.4,5.3 h 12.2 c 6.7,0 12.7,-0.4 13.2,-0.8 0.6,-0.4 3.3,-4.3 5.9,-8.7 9,-14.8 8,-15.8 8.6,8 l 0.5,21 13.3,0.3 13.2,0.3 v -44.1 -44 h -13 -13 l -3,4.7 c -1.6,2.7 -7.6,12.5 -13.2,22 -6.3,10.5 -10.9,17.2 -11.9,17.3 -0.9,0 -3.5,-3.3 -6.3,-8.3 -2.6,-4.5 -7.9,-13.4 -11.7,-19.7 -3.8,-6.3 -7.2,-12.2 -7.6,-13 -1.2,-2.7 -2.6,-3 -15.5,-3 h -12.8 z"
         id="path12-2"
         style="fill:#305782;fill-opacity:1;stroke:none;stroke-width:0.1" />
      <path
         d="m 371.67677,521.38283 c -0.3,0.8 -0.4,5.2 -0.2,9.8 l 0.3,8.4 16.8,0.3 16.7,0.2 v 32.4 c 0,17.9 0.3,33.1 0.6,34 0.5,1.3 2.7,1.6 13.5,1.6 h 12.9 l -0.2,-30.3 -0.3,-30.2 -5.2,-2.8 c -2.9,-1.6 -5.3,-3.2 -5.3,-3.8 0,-0.5 9.2,-0.9 22.5,-0.9 h 22.6 l -0.3,-9.8 -0.3,-9.7 -46.8,-0.3 c -38.4,-0.2 -46.8,0 -47.3,1.1 z"
         id="path13-4"
         style="fill:#305782;fill-opacity:1;stroke:none;stroke-width:0.1" />
    </g>
    <g
       id="g71"
       transform="translate(20.250503,11.43131)">
      <path
         d="m 135.5,368 c -7,0.8 -10,2.1 -13.8,6.3 -3.7,4.1 -5,9.5 -5,19.7 0,11.4 1.6,16.6 6.4,21.2 4,3.8 11.7,6.4 16.9,5.7 l 2.5,-0.4 0.3,-16.8 0.2,-16.7 24.3,0.2 24.2,0.3 0.3,3.3 0.3,3.3 12.2,-0.5 c 6.7,-0.2 12.5,-0.5 12.9,-0.5 1.3,-0.2 -0.3,-11.6 -2.1,-15 -0.9,-1.9 -3.4,-4.8 -5.4,-6.4 -2.9,-2.4 -4.9,-3.1 -11.4,-3.8 C 189,367 144.1,367 135.5,368 Z"
         id="path7-0"
         style="fill:#c53b4a;fill-opacity:1;stroke:none;stroke-width:0.1" />
      <path
         d="m 233.7,367.7 c -0.4,0.3 -0.7,20.1 -0.7,44 V 455 h 13 13.1 l -0.3,-13.3 -0.3,-13.2 -5.2,-2.8 c -2.9,-1.6 -5.3,-3.3 -5.3,-3.8 0,-0.6 11.4,-0.8 29.8,-0.7 l 29.7,0.3 0.5,16.5 0.5,16.5 H 321 333.5 V 411 367.5 H 321 308.5 l -0.3,16.7 c -0.2,15.1 -0.4,16.8 -2,16.8 -17.8,0.3 -45.5,-0.1 -46.2,-0.5 -0.6,-0.4 -1,-7.4 -1,-16.4 0,-15.6 0,-15.9 -2.2,-16.5 -3.1,-0.8 -22.3,-0.8 -23.1,0.1 z"
         id="path8-9"
         style="fill:#c53b4a;fill-opacity:1;stroke:none;stroke-width:0.1" />
      <path
         d="m 351.5,370.2 c -0.3,1.8 -0.4,21.5 -0.3,43.8 l 0.3,40.5 12.8,0.3 12.7,0.3 0.1,-10.3 c 0,-5.7 0.3,-25.1 0.5,-43.2 0.3,-25.9 0.2,-33.1 -0.8,-33.8 -0.7,-0.4 -6.6,-0.8 -13,-0.8 h -11.7 z"
         id="path9-4"
         style="fill:#c53b4a;fill-opacity:1;stroke:none;stroke-width:0.1" />
      <path
         d="m 396.3,367.6 c -1,0.4 -1.3,10.2 -1.3,44 v 43.5 l 12.8,-0.3 12.7,-0.3 0.3,-9.5 0.3,-9.6 -6.1,-2.9 c -3.3,-1.6 -6,-3.2 -6,-3.7 0,-0.4 2.4,-0.8 5.3,-0.8 2.8,0 18.9,-0.1 35.7,-0.3 28.7,-0.3 30.7,-0.4 34.5,-2.4 9.2,-4.8 11.5,-10.4 11.5,-27.7 0,-6.6 -0.5,-13.8 -1,-15.8 -1.4,-4.9 -5.3,-9.4 -10.4,-12 -4,-2.1 -5.5,-2.2 -45.6,-2.5 -22.8,-0.1 -42.1,0 -42.7,0.3 z m 73.2,29.9 v 10 l -24.2,0.3 -24.3,0.2 v -6.8 -6.9 l -5.5,-2.7 c -3,-1.4 -5.5,-3.1 -5.5,-3.6 0,-0.7 10.7,-0.9 29.8,-0.8 l 29.7,0.3 z"
         id="path10-8"
         style="fill:#c53b4a;fill-opacity:1;stroke:none;stroke-width:0.1" />
      <path
         d="m 167.1,402 c -7.5,1.6 -14.7,8.6 -15.8,15.5 l -0.6,3.5 h 20.2 20.1 v 7 7 l -3.7,0.2 c -12,0.5 -31.7,0.6 -37.5,0.1 -6.7,-0.6 -6.8,-0.6 -6.8,-3.4 V 429 h -12.9 c -14.6,0 -14.6,0 -13,8.4 1.1,6.2 3.3,10 7.1,13 5.7,4.3 10,4.7 45.3,4.4 31.1,-0.3 33.2,-0.4 36.9,-2.4 9.5,-4.9 12.9,-14.8 10.9,-30.9 -0.8,-7.1 -1.5,-9.2 -4,-12.2 -5.3,-6.6 -8.6,-7.6 -26.2,-7.9 -8.6,-0.2 -17.6,0.1 -20,0.6 z"
         id="path14-5"
         style="fill:#c53b4a;fill-opacity:1;stroke:none;stroke-width:0.1" />
    </g>
  </g>
</svg>
